<?xml version="1.0" standalone="no"?>
<!DOCTYPE svg PUBLIC "-//W3C//DTD SVG 20010904//EN"
 "http://www.w3.org/TR/2001/REC-SVG-20010904/DTD/svg10.dtd">
<svg version="1.0" xmlns="http://www.w3.org/2000/svg"
 width="700.000000pt" height="700.000000pt" viewBox="0 0 700.000000 700.000000"
 preserveAspectRatio="xMidYMid meet">
<metadata>
Created by potrace 1.14, written by Peter Selinger 2001-2017
</metadata>
<g transform="translate(0.000000,700.000000) scale(0.100000,-0.100000)"
fill="#000000" stroke="none">
<path d="M3339 6846 c-2 -2 -35 -7 -74 -11 -120 -10 -160 -16 -360 -51 -118
-21 -496 -134 -600 -179 -16 -7 -66 -27 -110 -45 -184 -74 -450 -216 -625
-333 -72 -48 -229 -164 -240 -177 -3 -3 -18 -16 -35 -29 -42 -32 -177 -155
-244 -222 -382 -382 -661 -836 -805 -1311 -33 -110 -62 -222 -72 -278 -2 -14
-6 -34 -9 -46 -3 -12 -7 -39 -10 -60 -3 -21 -10 -64 -15 -94 -33 -192 -35
-662 -4 -880 14 -99 59 -329 85 -437 161 -667 528 -1278 1024 -1708 39 -33 76
-66 84 -73 39 -37 250 -188 361 -258 159 -101 415 -223 624 -299 86 -31 354
-109 416 -120 14 -3 39 -7 55 -10 17 -4 62 -12 100 -20 39 -8 93 -17 120 -20
28 -3 61 -8 75 -10 83 -15 195 -20 425 -20 323 0 426 10 709 70 198 42 518
157 671 240 22 12 72 39 110 60 39 20 77 44 86 51 8 8 26 14 40 14 14 0 83 40
164 96 77 52 164 112 193 131 30 21 52 43 52 54 0 44 -45 23 -138 -65 -60 -57
-52 -53 -222 -134 -274 -132 -557 -261 -600 -273 -25 -6 -71 -13 -102 -15 -65
-3 -96 -11 -118 -29 -34 -29 -145 -58 -239 -61 -83 -3 -132 -13 -263 -54 -36
-12 -63 -6 -63 13 0 25 -12 30 -36 14 -20 -15 -24 -14 -56 7 -23 16 -45 23
-66 20 -18 -2 -53 -5 -80 -8 -26 -3 -57 -12 -68 -20 -12 -8 -28 -12 -36 -9 -7
3 -22 -2 -33 -12 -21 -19 -18 -22 -35 31 -6 19 -62 14 -95 -9 -24 -16 -52 -12
-109 17 -30 16 -35 16 -79 0 -26 -10 -51 -21 -57 -26 -20 -17 -46 -8 -56 21
-8 23 -21 32 -67 47 -31 10 -78 19 -103 20 -26 1 -55 6 -65 12 -11 5 -27 8
-36 7 -9 -2 -22 3 -29 11 -6 8 -27 14 -46 14 -18 0 -60 13 -92 30 -53 26 -201
74 -201 65 0 -11 -154 50 -227 90 -76 41 -104 52 -140 54 -7 1 -13 7 -13 14 0
22 -42 53 -90 66 -39 12 -93 37 -185 89 -13 6 -45 15 -71 19 -27 3 -52 11 -56
17 -13 18 -9 36 7 36 43 0 -13 61 -78 85 -32 11 -52 26 -62 45 -8 16 -41 49
-72 73 -71 55 -255 244 -343 352 -36 44 -67 82 -70 85 -13 12 -110 152 -173
250 -76 118 -218 395 -267 521 -98 253 -172 516 -205 729 -3 19 -7 46 -10 60
-29 164 -47 591 -30 755 16 166 76 435 135 610 17 50 32 97 34 105 13 50 112
278 183 419 45 91 83 170 83 177 0 7 7 14 15 18 8 3 15 15 15 26 0 28 18 60
33 60 7 1 28 26 47 57 72 115 166 240 230 303 36 36 101 104 145 150 74 77
153 153 231 220 193 166 245 208 267 214 14 3 68 33 118 66 115 74 347 193
499 255 243 100 496 175 568 168 32 -3 44 0 48 11 3 9 16 16 29 16 12 0 41 6
63 14 52 19 164 35 282 41 52 2 127 8 165 12 39 3 81 6 95 5 14 -1 57 -1 95
-1 213 5 276 3 283 -7 12 -19 47 -33 98 -39 278 -32 695 -165 1004 -320 372
-187 728 -484 1028 -859 189 -236 395 -581 508 -851 79 -186 179 -519 197
-655 3 -19 10 -66 16 -105 5 -38 13 -99 17 -135 9 -91 12 -417 3 -498 -4 -37
-10 -100 -14 -141 -4 -41 -9 -84 -11 -95 -3 -12 -7 -39 -10 -61 -11 -78 -56
-272 -95 -410 -105 -364 -287 -750 -524 -1110 -33 -49 -62 -92 -65 -95 -6 -5
-135 -183 -153 -210 -5 -8 46 41 114 110 413 417 709 1042 814 1718 33 214 40
308 40 552 0 225 -6 316 -29 460 -4 25 -9 56 -12 70 -62 397 -279 916 -557
1335 -306 461 -693 815 -1167 1068 -289 154 -678 282 -975 321 -77 10 -120 16
-155 22 -39 7 -644 16 -651 10z"/>
<path d="M3297 5848 c-8 -13 -26 -44 -40 -70 -33 -57 -85 -84 -179 -92 -37 -3
-78 -8 -93 -12 -37 -9 -44 -53 -20 -117 5 -10 -1 -14 -22 -13 -106 4 -165 -33
-212 -134 -35 -75 -60 -98 -138 -131 -99 -42 -119 -52 -178 -81 -186 -94 -200
-176 -56 -326 66 -69 75 -98 42 -129 -17 -16 -36 -18 -125 -17 -138 2 -151 -6
-143 -88 5 -56 4 -60 -29 -95 -34 -36 -34 -38 -28 -102 5 -62 4 -68 -25 -108
-33 -46 -90 -77 -157 -87 -151 -23 -163 -32 -126 -97 l23 -40 -35 -41 c-40
-46 -47 -72 -30 -109 28 -58 127 -95 263 -98 l55 -1 -29 -30 c-32 -34 -66 -46
-145 -55 -131 -13 -157 -18 -182 -37 -16 -11 -28 -25 -28 -32 0 -7 -8 -20 -17
-29 -15 -12 -27 -14 -67 -6 -27 5 -51 11 -54 14 -3 2 -13 0 -23 -6 -13 -7 -17
-17 -13 -37 6 -32 3 -37 -58 -86 -74 -60 -59 -109 39 -127 68 -13 70 -18 49
-100 -25 -99 -16 -126 45 -121 9 1 39 17 68 37 29 19 57 35 61 35 5 0 22 -11
38 -25 17 -14 42 -25 56 -25 19 0 26 -5 26 -20 0 -28 40 -41 93 -31 24 4 54 4
67 -1 20 -7 22 -12 16 -51 -20 -122 -20 -125 12 -157 49 -49 134 -39 209 24
l33 28 10 -29 c28 -76 27 -76 131 -98 38 -8 84 -24 101 -36 53 -38 81 -30 153
41 58 57 68 63 114 68 28 2 72 -1 97 -8 25 -7 74 -13 109 -13 64 0 125 23 230
88 43 27 90 32 129 14 58 -27 118 -173 141 -339 12 -91 13 -511 1 -570 -2 -14
-7 -52 -10 -85 -9 -98 -45 -293 -72 -394 -31 -115 -51 -165 -120 -308 -53
-110 -62 -145 -45 -172 12 -18 139 -26 392 -25 278 0 282 4 215 184 -47 124
-71 221 -85 350 -9 79 -6 410 4 470 3 19 13 76 21 127 18 111 72 281 114 365
91 180 214 283 352 295 80 8 105 -1 122 -42 15 -35 15 -35 120 -49 45 -6 72
-27 81 -63 6 -24 8 -25 58 -18 69 10 112 7 154 -10 48 -20 76 -19 108 6 19 16
26 29 22 45 -3 20 -1 22 27 17 26 -4 41 3 90 41 53 41 80 52 110 47 27 -5 134
-3 154 3 28 9 42 35 48 94 12 112 16 124 56 170 34 40 35 54 4 84 -42 41 -52
104 -27 172 12 32 5 79 -18 117 -25 40 -26 60 -7 102 38 90 38 86 12 110 -14
12 -38 32 -55 45 -18 14 -35 40 -43 64 -13 45 -31 55 -104 59 -27 1 -61 9 -76
18 -32 18 -61 72 -52 96 4 9 35 29 70 45 50 22 65 34 70 56 15 59 -37 88 -197
109 -215 28 -253 43 -228 88 12 21 53 22 122 3 94 -27 125 -28 147 -6 37 37
15 92 -42 104 -37 7 -78 42 -78 66 0 10 15 20 45 28 48 13 59 27 69 87 6 37 4
43 -23 68 -20 18 -31 37 -31 55 0 40 -35 91 -74 107 -19 8 -83 26 -142 41
-210 50 -290 83 -348 141 -45 46 -57 96 -39 180 22 107 6 151 -64 174 -44 14
-88 -3 -109 -42 -19 -39 -68 -63 -111 -56 -71 12 -84 42 -84 188 1 158 -10
165 -159 104 -77 -31 -108 -39 -163 -39 -61 -1 -71 2 -88 23 -19 23 -25 67
-11 86 4 6 27 19 52 30 25 10 53 26 64 36 18 16 18 17 -2 37 l-20 20 -64 -20
c-71 -22 -160 -21 -183 3 -8 8 -16 28 -17 44 -3 57 -45 75 -71 33z m837 -2620
c4 -25 20 -59 37 -80 l30 -38 -58 -27 c-109 -51 -203 -126 -299 -238 -50 -58
-109 -140 -129 -179 -26 -50 -43 -18 -68 129 -28 164 1 317 77 403 26 29 39
28 79 -8 65 -57 102 -57 130 0 17 35 81 61 188 79 4 1 9 -18 13 -41z"/>
</g>
</svg>
