<?xml version="1.0" encoding="utf-8"?>
<!-- Generator: Adobe Illustrator 27.0.1, SVG Export Plug-In . SVG Version: 6.00 Build 0)  -->
<svg version="1.1" id="Ebene_1" xmlns="http://www.w3.org/2000/svg" xmlns:xlink="http://www.w3.org/1999/xlink" x="0px" y="0px"
	 viewBox="0 0 74 88" style="enable-background:new 0 0 74 88;" xml:space="preserve">
<style type="text/css">
	.st0{fill:#363636;}
</style>
<path class="st0" d="M70.37,33.25c0.57-0.98,1.09-2.06,0.56-3.17c-0.29-0.61-0.69-0.56-1.11-0.2c0.23-0.41,0.37-0.87,0.36-1.38
	c0-0.23-0.14-0.46-0.39-0.48c-1.11-0.09-1.97,0.64-2.35,1.63c-0.07,0.17-0.13,0.39-0.2,0.62c-0.2,0.08-0.36,0.23-0.51,0.4
	c-0.11,0.03-0.22,0.06-0.33,0.1c-0.07-0.05-0.13-0.1-0.2-0.15c0-0.04,0-0.07,0-0.11c0.46-0.38,0.79-0.89,0.87-1.54
	c0.06-0.48-0.02-0.77-0.2-0.94c0.05,0.01,0.11,0.03,0.16,0.05c0.24,0.05,0.48-0.22,0.42-0.45c-0.11-0.44-0.32-0.78-0.61-1.04
	c0.89,0.07,1.86,0.02,2.53-0.5c0.24-0.18,0.18-0.5-0.01-0.68c-0.61-0.56-1.58-0.68-2.41-0.45c0.29-0.73-0.16-1.26-0.84-1.6
	c1.33-0.45,2.53-1.19,1.85-2.12c-0.23-0.31-0.52-0.43-0.84-0.43c0.07-0.34-0.02-0.72-0.35-1.14c-0.1-0.12-0.25-0.12-0.37-0.04
	c-0.49,0.32-1.01,0.68-1.4,1.13c-0.02,0.02-0.02,0.04-0.02,0.07c-0.12,0.06-0.23,0.13-0.34,0.21c0.5-1.19,0.43-2.65-0.73-3.13
	c-0.37-0.15-0.66-0.02-0.89,0.28c-0.01-0.08-0.02-0.15-0.04-0.23c-0.07-0.32-0.57-0.52-0.76-0.18c-0.25,0.42-0.43,0.86-0.58,1.31
	c-0.18-0.81-0.45-1.59-0.92-2.3c-0.11-0.16-0.34-0.19-0.51-0.12c-0.23,0.09-0.42,0.22-0.59,0.39c0.44-1.33,0.32-3.01-0.88-3.23
	c-0.79-0.14-1.16,0.64-1.31,1.58c-0.08-0.07-0.16-0.14-0.25-0.2c1.13-1.05,0.16-1.61-1.14-1.92c0.04-0.06,0.04-0.14,0.03-0.21
	c1.58-0.64,2.7-2.52,1.39-4.07c-0.46-0.54-1.03-0.68-1.59-0.56c0.01-0.27,0-0.53-0.06-0.78c-0.17-0.73-0.91-0.86-1.43-0.37
	c-0.76,0.72-1.27,1.64-1.52,2.65c-0.02,0.06-0.03,0.13-0.04,0.19c-0.05,0.06-0.1,0.13-0.14,0.2c-0.04-0.62-0.16-1.23-0.44-1.81
	c-0.06-0.12-0.18-0.2-0.3-0.22c0.49-0.83,0.64-1.85,0.18-2.7c-0.39-0.73-1.26-0.89-1.94-0.49c-0.23,0.13-0.41,0.31-0.55,0.51
	c0,0,0,0-0.01,0.01c0.09-0.5,0.12-1,0.14-1.44c0.01-0.31-0.32-0.63-0.63-0.46c-0.72,0.4-1.49,1-1.98,1.72
	C47.08,5.35,47,5.27,46.91,5.19c0.32-0.15,0.61-0.34,0.83-0.59c0.42-0.47,0.29-1.15-0.26-1.46c-0.56-0.31-1.29-0.32-1.87-0.04
	C45.37,3.22,45.17,3.38,45,3.57c-0.1-0.67-0.37-1.36-0.72-1.85c0.02-0.28,0.01-0.56-0.06-0.81C44.11,0.47,43.83,0,43.32,0
	c-0.5-0.01-0.87,0.42-0.99,0.88c-0.05,0.19-0.09,0.38-0.1,0.59c-0.03-0.01-0.06-0.03-0.09-0.05c-0.26-0.1-0.55,0.08-0.57,0.35
	c-0.01,0.11-0.02,0.22-0.02,0.33c-0.34-0.46-0.78-0.83-1.33-1c-0.21-0.06-0.48,0.01-0.55,0.24c-0.1,0.32-0.16,0.67-0.18,1.03
	c-0.12,0.07-0.22,0.18-0.24,0.34c-0.01,0.05-0.01,0.1-0.01,0.15c-0.35-0.36-0.83-0.59-1.43-0.58c-0.23,0.01-0.38,0.19-0.31,0.42
	c0.11,0.32,0.28,0.62,0.45,0.91c-0.16-0.08-0.31-0.15-0.48-0.21c-0.14-0.05-0.26,0.01-0.33,0.11c-0.32-0.37-0.72-0.69-1.2-0.91
	c0.14-0.18,0.32-0.45,0.57-0.46c0.38-0.02,0.53,0.61,0.6,0.87c0.06,0.22,0.42,0.17,0.36-0.06c-0.2-0.78-0.66-1.62-1.55-1.08
	c-0.45,0.27-0.81,0.72-1.03,1.22c-0.29-0.9-0.78-1.75-1.37-2.48c-0.17-0.21-0.47-0.13-0.57,0.09c-0.27,0.56-0.27,1.16-0.15,1.76
	c-0.33-0.36-0.7-0.68-1.2-0.92c-0.24-0.12-0.5,0.14-0.47,0.37c0.18,1.19,0.87,2.26,1.57,3.26c-0.01,0.27,0,0.54,0.02,0.82
	c-0.05,0-0.11,0.01-0.16,0.02C32.28,5.83,32,5.66,31.73,5.56c0.02-0.36,0.01-0.71-0.08-1.04c-0.29-1.1-1.41-1.71-2.48-1.13
	c-0.04,0.02-0.08,0.06-0.12,0.09c-0.19-0.29-0.44-0.55-0.81-0.71c-0.17-0.08-0.39,0.03-0.45,0.2c-0.12,0.33-0.17,0.7-0.18,1.09
	c-0.21-0.14-0.42-0.26-0.63-0.33c-0.21-0.07-0.41,0.02-0.5,0.22c-0.32,0.66-0.35,1.39-0.24,2.1c-0.33-0.13-0.67-0.23-1.04-0.28
	c-0.26-0.04-0.45,0.21-0.42,0.44c0.02,0.23,0.06,0.46,0.1,0.7c-0.2,0.01-0.4,0.04-0.61,0.13c-0.57,0.25-0.94,0.59-1.16,1
	c-0.35-0.73-1.1-1.42-1.73-1.64c-0.26-0.09-0.51,0.11-0.47,0.38c0.03,0.23,0.08,0.45,0.15,0.67c-0.36-0.34-0.75-0.66-1.21-0.9
	c-0.25-0.13-0.53,0.15-0.49,0.39c0.05,0.34,0.15,0.66,0.27,0.96c-0.27-0.07-0.55-0.11-0.87-0.1c-0.25,0.01-0.37,0.32-0.28,0.52
	c0.05,0.1,0.1,0.2,0.16,0.3c-0.26,0.17-0.23,0.59,0.02,0.77c-0.19,0.05-0.38,0.12-0.57,0.24c-0.13,0.08-0.19,0.32-0.11,0.45
	c0.05,0.08,0.11,0.15,0.16,0.23c-0.01,0.06-0.02,0.12-0.01,0.18c0.07,0.32,0.2,0.61,0.36,0.88c-0.15-0.04-0.29-0.08-0.44-0.11
	c-0.19-0.03-0.34,0.07-0.42,0.23c-0.68-0.36-1.37-0.52-2-0.08c-0.05-0.37-0.17-0.75-0.36-1.1c-0.1-0.2-0.38-0.31-0.57-0.14
	c-0.4,0.37-0.8,0.89-1.15,1.48c-0.16-0.23-0.43-0.37-0.72-0.43c-0.14-0.44-0.32-0.85-0.57-1.2c-0.19-0.26-0.63-0.12-0.64,0.19
	c-0.04,0.5-0.01,1.01,0.04,1.51c-0.12,0.17-0.23,0.35-0.3,0.55c-0.48-0.88-1.1-1.51-1.97-1.07c-0.87,0.43-0.92,1.32-0.65,2.28
	c-0.56-0.34-1.17-0.39-1.77,0.18c-0.71,0.66-0.37,1.73,0.26,2.65c-0.05,0.05-0.1,0.1-0.15,0.17c-0.46,0.63,0.09,1.45,0.74,2.15
	c-0.34-0.01-0.69,0.05-1.07,0.2c-0.18,0.07-0.3,0.33-0.19,0.51c0.37,0.61,0.83,1.13,1.29,1.66c-0.14,0.01-0.28,0.02-0.41,0.04
	c-0.63-0.83-1.42-1.4-2.17-0.95c-0.82,0.5-0.67,1.28-0.21,2.05c-0.25-0.02-0.51-0.02-0.78,0.02c-0.22,0.03-0.41,0.31-0.29,0.53
	c0.45,0.77,1.14,1.35,1.66,2.05c-0.02,0-0.03,0.01-0.05,0.01c-0.95-1.21-2.99-1.84-4.35-1.79c-0.34,0.01-0.43,0.45-0.26,0.68
	c0.29,0.39,0.6,0.76,0.91,1.13c-0.4-0.01-0.81,0.04-1.23,0.16c-0.2,0.06-0.32,0.37-0.21,0.55c0.55,0.93,1.32,1.59,2.19,2.16
	c-0.61,0.05-1.21,0.22-1.79,0.53c-0.23,0.12-0.35,0.43-0.16,0.64c0.34,0.38,0.73,0.65,1.15,0.88c-0.02,0.04-0.03,0.08-0.03,0.12
	c-0.73,0.24-1.34,0.69-1.59,1.53c-0.07,0.22,0.01,0.51,0.26,0.59c0.13,0.04,0.25,0.07,0.37,0.1c-0.12,0.1-0.24,0.19-0.36,0.31
	c-0.2,0.21-0.23,0.51,0.01,0.71c0.55,0.43,1.15,0.62,1.77,0.62c0.01,0.01,0.02,0.03,0.03,0.04c0.03,0.02,0.07,0.04,0.1,0.06
	c0.16,0.81,0.59,1.61,1.19,2.25c-0.51-0.07-1-0.09-1.46-0.07c-0.33,0.02-0.39,0.42-0.24,0.64c0.41,0.66,1,1.21,1.65,1.69
	c-0.05,0.03-0.09,0.06-0.13,0.09c-0.55,0.1-1.08,0.31-1.49,0.72c-0.16,0.15-0.23,0.41-0.07,0.6c0.64,0.71,1.63,1.06,2.66,1.1
	c-0.11,0.13-0.21,0.28-0.29,0.45c-0.09,0.18,0.01,0.42,0.16,0.53c0.51,0.39,1.09,0.57,1.7,0.64c-0.35,0.39-0.44,0.86-0.03,1.38
	c0.71,0.92,1.9,0.83,3.08,0.42c-0.61,0.71-0.94,1.47-0.39,2.11c1.45,1.72,3.67-0.86,5.01-2.28c0.13-0.06,0.26-0.12,0.4-0.18
	c-0.33,0.58-0.65,1.17-0.95,1.77c-0.21,0.42,0.32,0.68,0.65,0.49c-0.04,0.6,0.12,1.11,0.61,1.36c0.84,0.42,1.45,0.03,1.88-0.64
	c0.32,0.6,0.89,0.94,1.83,0.67c0.73-0.21,1.31-0.67,1.74-1.24c0.19,0.68,0.47,1.33,0.86,1.91c0.12,0.18,0.41,0.2,0.57,0.07
	c0.59-0.53,0.75-1.25,0.68-2c0.33,0.49,0.76,0.97,1.33,1c0.74,0.04,0.92-0.65,0.81-1.24c0.43,0.29,0.88,0.56,1.36,0.81
	c1.84,0.95,3.45,1.93,4.34,3.87c0.83,1.83,1.2,3.8,1.43,5.79c0.3,2.5-0.16,4.93-0.25,7.43c-0.08,2.22,0.4,4.3,0.78,6.47
	c0.38,2.2,0.79,4.52-0.08,6.67c-0.88,2.17-2.7,4.04-4.62,5.35c-0.09,0.06-0.17,0.11-0.26,0.16c-0.09-0.11-0.19-0.22-0.33-0.31
	c-0.11-0.07-0.22-0.02-0.28,0.07c-0.16-0.11-0.39-0.07-0.43,0.15c-0.02,0.1-0.03,0.2-0.04,0.29c-0.06-0.25-0.17-0.49-0.37-0.65
	c-0.23-0.18-0.64-0.23-0.77,0.08c-0.03,0.06-0.02,0.13,0,0.19c-0.05,0.06-0.09,0.13-0.09,0.23c0,0.04,0,0.08,0,0.11
	c-0.13-0.13-0.28-0.24-0.47-0.29c-0.02-0.03-0.06-0.04-0.08-0.07c-0.04-0.07-0.1-0.11-0.16-0.13c-0.06-0.05-0.11-0.11-0.18-0.15
	c-0.21-0.12-0.4,0.15-0.27,0.32c-0.01,0.02-0.03,0.05-0.03,0.08c-0.2-0.27-0.44-0.62-0.8-0.62c-0.17,0-0.34,0.17-0.32,0.34
	c0.02,0.15,0.09,0.26,0.18,0.36c0,0,0,0-0.01,0c-0.22-0.27-0.48-0.49-0.79-0.63c-0.21-0.09-0.38,0.15-0.23,0.32
	c0.45,0.54,0.89,0.97,1.18,1.59c-0.1,0-0.18,0.05-0.23,0.13c-0.23-0.71-0.59-1.31-1.27-1.33c-0.21-0.01-0.35,0.31-0.17,0.45
	c0.25,0.19,0.53,0.28,0.72,0.56c0.17,0.26,0.31,0.53,0.42,0.82c0.01,0.02,0.01,0.04,0.02,0.05c-0.05,0.02-0.11,0.05-0.16,0.07
	c-0.08-0.12-0.15-0.23-0.23-0.34c-0.31-0.42-0.69-1.07-1.23-1.18c-0.12-0.02-0.21,0.05-0.23,0.15c-0.1,0-0.18,0.08-0.21,0.16
	c-0.1-0.03-0.21-0.05-0.32-0.03c-0.11,0.02-0.13,0.17-0.06,0.24c0.19,0.18,0.45,0.26,0.63,0.46c0.11,0.12,0.2,0.25,0.28,0.39
	c0,0.12,0,0.24,0.01,0.37c-0.21-0.37-0.49-0.68-0.86-0.84c-0.31-0.33-0.67-0.69-1.07-0.77c-0.14-0.03-0.27,0.03-0.34,0.13
	c-0.03,0.01-0.05,0-0.08,0.01c-0.1,0.02-0.12,0.18-0.02,0.23c0.02,0.01,0.04,0.01,0.06,0.02c0.01,0.04,0,0.07,0.02,0.11
	c0.05,0.1,0.13,0.18,0.2,0.26c-0.16-0.1-0.34-0.14-0.54-0.01c-0.12,0.08-0.12,0.27-0.03,0.36c-0.1-0.06-0.2-0.1-0.31-0.11
	c-0.19-0.02-0.39,0.18-0.26,0.36c0,0.01,0.01,0.01,0.01,0.02c-0.07-0.01-0.14,0-0.22,0.03c-0.11,0.04-0.13,0.18-0.02,0.25
	c0.22,0.13,0.37,0.24,0.5,0.4c-0.03,0.03-0.05,0.09-0.01,0.13c0.09,0.1,0.18,0.2,0.27,0.3c0.01,0.01,0.01,0.03,0.02,0.04
	c-0.2-0.13-0.37-0.24-0.45-0.3c0,0-0.01,0-0.01,0c-0.05-0.1-0.11-0.19-0.2-0.27c-0.27-0.26-0.75-0.56-1.11-0.33
	c-0.13,0.08-0.13,0.24-0.04,0.35c0.01,0.01,0.02,0.01,0.02,0.02c-0.01,0-0.01,0-0.02,0c-0.07,0-0.09,0.07-0.06,0.13
	c-0.01,0-0.02,0-0.03,0c-0.02-0.01-0.03-0.02-0.05-0.03c-0.09-0.05-0.17,0.08-0.11,0.14c0.01,0.01,0.03,0.03,0.04,0.04
	c0,0.04-0.01,0.07,0.01,0.11c-0.05,0.06-0.07,0.15-0.01,0.21c0.12,0.12,0.25,0.16,0.4,0.15c0.03,0.04,0.06,0.07,0.08,0.11
	c0.06,0.11,0.1,0.22,0.14,0.34c-0.22-0.29-0.54-0.5-0.81-0.74c-0.1-0.09-0.22,0.05-0.14,0.14c0.08,0.09,0.15,0.17,0.22,0.26
	c-0.05-0.02-0.1-0.04-0.14-0.05c-0.1-0.04-0.16,0.13-0.07,0.17c0.2,0.09,0.31,0.23,0.36,0.44c0.02,0.11,0.18,0.14,0.25,0.06
	c0.03-0.03,0.04-0.06,0.06-0.09c0.03,0.04,0.06,0.07,0.1,0.11c0.09,0.1,0.22,0.03,0.26-0.07c0.01,0.02,0.02,0.06,0.03,0.08
	c0.08,0.14,0.33,0.15,0.39-0.01c0.04-0.11,0.04-0.2,0.03-0.31c0.05,0.15,0.05,0.29-0.04,0.41c-0.12,0.15-0.05,0.44,0.18,0.41
	c0.28-0.03,0.43-0.17,0.49-0.35c0.03,0.03,0.05,0.08,0.09,0.11c0.07,0.07,0.16,0.06,0.24,0.03c0.04,0.06,0.05,0.08,0.04,0.06
	c0.04,0.11,0.15,0.2,0.26,0.19c0.33-0.05,0.34-0.27,0.25-0.51c0.03,0.03,0.06,0.06,0.08,0.09c0.05,0.09,0.1,0.17,0.16,0.25
	c0.06,0.12,0.11,0.24,0.13,0.39c0.02,0.13,0.17,0.25,0.29,0.16c0.22-0.17,0.24-0.37,0.15-0.59c0.04-0.01,0.07-0.02,0.1-0.04
	c0.01,0.01,0.01,0.01,0.01,0.02c0.03,0.05,0.02,0.04,0.01,0.03c0.01,0.06,0.05,0.13,0.1,0.14c0.04,0.02,0.07,0.01,0.11,0.02
	c0.02,0.04,0.04,0.08,0.07,0.11c0.07,0.1,0.2,0.15,0.32,0.08c0.12-0.08,0.18-0.18,0.21-0.28c0.05-0.03,0.08-0.1,0.05-0.16
	c-0.01-0.02-0.02-0.04-0.03-0.06c0-0.03-0.01-0.06-0.02-0.09c0.14,0.15,0.28,0.29,0.46,0.4c0.05,0.03,0.12,0,0.13-0.06
	c0.04-0.14,0.02-0.27-0.02-0.4c0.02-0.01,0.04-0.01,0.06-0.02c0.04,0.04,0.1,0.04,0.14,0.01c0.07,0.18,0.14,0.35,0.21,0.52
	c0.19,0.43,0.87,0.26,0.72-0.22c-0.03-0.1-0.06-0.2-0.1-0.29c0.01,0.01,0.02,0.02,0.03,0.02c0,0.01,0.01,0.02,0.01,0.04
	c0.01,0.05,0.05,0.06,0.09,0.06c0.01,0.01,0.02,0.02,0.03,0.03c0.04,0.05,0.09,0.1,0.13,0.16c0.02,0.03,0.03,0.07,0.03,0.09
	c-0.01,0.07,0.06,0.11,0.1,0.14c0.13,0.12,0.35,0.09,0.43-0.07c0.08-0.16,0.05-0.31-0.02-0.46c0.13,0.15,0.27,0.3,0.41,0.45
	c-0.02,0.03-0.03,0.06-0.06,0.09c-0.07,0.08,0.04,0.19,0.12,0.11c0.02-0.03,0.04-0.05,0.06-0.08c0.02,0.02,0.03,0.04,0.05,0.05
	c0.2,0.19,0.48,0.02,0.49-0.22c0-0.07-0.01-0.15-0.04-0.22c0.07,0.05,0.13,0.1,0.2,0.15c0.01,0,0.02,0,0.03,0
	c0.09,0.14,0.31,0.24,0.39,0.12c0,0,0,0.01,0,0.01c0.1-0.14,0.05-0.34-0.01-0.52c0.18,0.17,0.34,0.37,0.57,0.47
	c0.05,0.02,0.1,0,0.12-0.05c0.03-0.09,0.04-0.18,0.03-0.28c0,0,0.01,0,0.01-0.01c0.03,0.02,0.06,0.04,0.1,0.05
	c0.07,0.01,0.14,0.01,0.22,0.01c0.05,0.08,0.1,0.16,0.14,0.24c0.08,0.13,0.23,0.11,0.31,0.01c0.31,0.24,0.83,0.3,1.16,0.3
	c0.07,0,0.12-0.04,0.15-0.09c0.05,0.01,0.09,0.02,0.13,0.04c0.14,0.07,0.25-0.05,0.23-0.18c0.02,0,0.03-0.01,0.05-0.01
	c0.21,0.14,0.5,0.18,0.75,0.12c0.08,0.02,0.16,0.03,0.23,0.04c0.11,0.01,0.17-0.12,0.07-0.19c-0.04-0.02-0.08-0.04-0.12-0.07
	c-0.02-0.05-0.05-0.08-0.12-0.08c0,0-0.01,0-0.01,0c0,0,0,0,0,0c0.02-0.01,0.04-0.02,0.05-0.03c0.04-0.04,0.07-0.08,0.1-0.12
	c0.03,0.14,0.13,0.25,0.27,0.28c0.08,0.14,0.16,0.28,0.26,0.41c0.15,0.2,0.44,0.02,0.33-0.2c-0.06-0.12-0.12-0.23-0.18-0.35
	c0,0,0,0,0,0c0.16,0.17,0.32,0.32,0.53,0.45c0.09,0.05,0.18-0.08,0.1-0.15c-0.07-0.06-0.14-0.12-0.21-0.18
	c0.06,0.02,0.13,0.05,0.19,0.07c0.03,0.01,0.06,0.01,0.08,0.01c0.05,0.13,0.17,0.23,0.33,0.17c0.04-0.02,0.07-0.05,0.11-0.07
	c0.09,0.1,0.19,0.2,0.27,0.31c0.07,0.1,0.24,0.01,0.17-0.1c-0.08-0.11-0.17-0.21-0.26-0.31c0.12-0.09,0.22-0.19,0.33-0.29
	c0,0.01,0,0.02,0,0.03c0,0.13,0.13,0.22,0.26,0.21c0.2,0.19,0.43,0.35,0.67,0.5c0.07,0.04,0.13-0.06,0.08-0.11
	c-0.02-0.02-0.04-0.05-0.06-0.07c0.01,0.01,0.02,0.02,0.03,0.03c0.02,0.02,0.04,0.03,0.05,0.04v0c0.12,0.07,0.27,0,0.33-0.11
	c0.07-0.08,0.1-0.22,0.01-0.3c-0.05-0.05-0.1-0.09-0.15-0.13c0.05,0,0.1,0,0.15,0c0.01,0.13,0.1,0.24,0.24,0.29
	c0.17,0.06,0.41,0.08,0.68,0.06c0.02,0.09,0.08,0.16,0.19,0.18c0.41,0.05,0.78-0.07,1.16-0.19c0.13-0.04,0.25-0.09,0.38-0.14
	c-0.01,0.01-0.02,0.03-0.02,0.05c-0.02,0.09,0.03,0.18,0.1,0.23c-0.02,0.02-0.04,0.03-0.05,0.05c-0.11,0.12-0.06,0.31,0.1,0.35
	c0.32,0.08,0.63-0.07,0.92-0.19c0.28-0.12,0.55-0.23,0.82-0.36c0.08-0.04,0.09-0.12,0.09-0.19c0.06-0.03,0.09-0.07,0.1-0.13
	c0.28,0.1,0.56,0.11,0.79-0.09c0,0,0,0,0,0c0.06,0.07,0.14,0.11,0.25,0.08c0.2-0.05,0.29-0.04,0.45-0.2
	c0.04-0.04,0.07-0.1,0.08-0.16c0,0.01,0.01,0.02,0.02,0.04c0.14,0.24,0.44,0.19,0.59,0.02c0.02,0.21,0.24,0.42,0.47,0.33
	c0.05-0.02,0.09-0.05,0.14-0.07c0.08,0.02,0.17,0,0.24-0.08c0,0,0-0.01,0.01-0.01c0.04,0,0.08-0.01,0.12-0.05
	c0.05-0.04,0.09-0.09,0.14-0.15c0.03-0.02,0.05-0.05,0.08-0.07c0.04-0.01,0.07-0.02,0.11-0.04c0,0.01,0,0.03,0,0.04
	c0.02,0.29,0.43,0.34,0.51,0.07l0.02,0c0.04,0.05,0.11,0.08,0.17,0.04c0.05-0.02,0.09-0.05,0.14-0.07
	c-0.07,0.12-0.04,0.28,0.07,0.37c-0.23,0.03-0.47,0.06-0.7,0.13c-0.12,0.03-0.09,0.22,0.04,0.21c1.17-0.11,2.36-0.06,3.52-0.24
	c0.1-0.02,0.1-0.17,0-0.16c-0.22,0.02-0.44,0.03-0.66,0.03c0.27-0.03,0.54-0.06,0.81-0.1c-0.01,0.06-0.01,0.12,0,0.17
	c-0.1,0.06-0.2,0.11-0.29,0.19c-0.09,0.06-0.01,0.2,0.09,0.15c0.11-0.06,0.22-0.1,0.33-0.15c0.05,0.04,0.12,0.06,0.2,0.06
	c0.55,0,1.13-0.01,1.68-0.13c0.35-0.04,0.7-0.09,1.05-0.14c0.86,0.12,1.7,0.2,2.56,0.02c0.35-0.07,0.35-0.6,0.04-0.72
	c0.03-0.1-0.02-0.22-0.13-0.25c-0.39-0.1-0.87-0.01-1.29,0.04c0,0,0.01-0.01,0.01-0.01c0.17-0.13,0.11-0.4-0.12-0.4
	c-0.16,0-0.33,0.03-0.51,0.08c0-0.01,0-0.02-0.01-0.02c0.05-0.1,0.06-0.21-0.04-0.29c-0.03-0.02-0.06-0.04-0.08-0.05
	c-0.03-0.08-0.1-0.15-0.2-0.11c-0.03,0.01-0.04,0.02-0.07,0.03c-0.09-0.01-0.18,0-0.27,0.02c0.04-0.1,0-0.24-0.13-0.27
	c-0.02-0.01-0.05-0.01-0.07-0.01c-0.01-0.01-0.02-0.02-0.03-0.02c-0.05-0.04-0.11-0.06-0.18-0.07c-0.09-0.11-0.24-0.16-0.39-0.1
	c0.07-0.11,0.03-0.28-0.12-0.32c-0.25-0.07-0.49-0.03-0.71,0.07c-0.02,0-0.04-0.02-0.07-0.02c-0.05,0-0.09,0.01-0.14,0.01
	c0.09-0.09,0.16-0.19,0.22-0.29c0.12-0.24-0.1-0.48-0.35-0.43c-0.15,0.03-0.28,0.12-0.41,0.22c-0.04-0.01-0.09-0.02-0.14-0.01
	c0,0,0,0-0.01,0.01c-0.04-0.1-0.12-0.17-0.23-0.15c-0.28,0.05-0.5,0.22-0.7,0.42c-0.12,0.06-0.23,0.13-0.35,0.2
	c0.28-0.39,0.6-0.74,0.86-1.14c0.12-0.18-0.16-0.37-0.3-0.22c-0.21,0.23-0.4,0.49-0.57,0.76c0.01-0.06,0.01-0.12,0.01-0.19
	c0.14-0.26,0.29-0.54,0.27-0.78c-0.01-0.15-0.16-0.28-0.32-0.23c-0.14,0.05-0.23,0.15-0.31,0.28c0,0-0.01,0-0.01,0
	c-0.04-0.03-0.09-0.07-0.14-0.09c-0.01,0-0.01,0-0.02-0.01c-0.07-0.3-0.29-0.73-0.56-0.73c-0.08-0.16-0.19-0.29-0.35-0.35
	c-0.1-0.03-0.23,0.03-0.28,0.13c-0.06,0.13-0.06,0.29-0.03,0.46c-0.03-0.02-0.06-0.03-0.08-0.05c-0.34-0.33-0.74-0.59-1.17-0.87
	c-0.96-0.61-1.61-1.5-2.1-2.52c-0.98-2.05-1.17-4.38-1.59-6.58c-0.97-5.05-1.04-10.05-0.8-15.15c0.07-1.54,0.19-3.52,1.12-4.86
	c0.04-0.01,0.07-0.05,0.07-0.11c0.33-0.43,0.74-0.79,1.28-1.03c0.2-0.09,0.4-0.17,0.61-0.23c0.06-0.02,0.12-0.03,0.19-0.05
	c0.15-0.04,0.29-0.08,0.44-0.11c0.07-0.02,0.15-0.03,0.22-0.04c0.14-0.03,0.28-0.05,0.42-0.07c0.08-0.01,0.16-0.02,0.23-0.03
	c0.09-0.01,0.18-0.02,0.27-0.03c0.48-0.04,0.96-0.07,1.44-0.09c0.55-0.02,1.09-0.04,1.63-0.09c0.04-0.01,0.08-0.01,0.11-0.01
	c0.09-0.01,0.17-0.02,0.26-0.04c0.15-0.02,0.3-0.04,0.44-0.06c0.09-0.01,0.17-0.04,0.25-0.05c0.15-0.03,0.31-0.06,0.46-0.1
	c0.08-0.02,0.16-0.05,0.23-0.07c0.15-0.04,0.3-0.08,0.45-0.13c0.09-0.03,0.18-0.07,0.27-0.1c0.13-0.05,0.26-0.09,0.38-0.14
	c0.13-0.05,0.26-0.12,0.39-0.17c0.08-0.04,0.16-0.07,0.24-0.11c0.2-0.1,0.4-0.2,0.6-0.31c0.01-0.01,0.02-0.01,0.03-0.02
	c0.3-0.17,0.61-0.35,0.91-0.54c0,0.01,0,0.02,0.01,0.03c0.41,1.46,2.17,0.4,2.52-0.71c0.14,0.01,0.28,0.01,0.42,0
	c-0.01,0.73,0.07,1.45,0.28,2.15c0.07,0.24,0.42,0.35,0.62,0.24c0.44-0.22,0.86-0.55,1.17-0.94c0.11,0.04,0.22,0.04,0.35,0
	c0.42-0.16,0.84-0.34,1.25-0.56c-0.11,0.67-0.08,1.37,0.13,2.04c0.09,0.32,0.53,0.35,0.75,0.18c0.16-0.12,0.32-0.24,0.49-0.37
	c0.1,0.42,0.26,0.81,0.53,1.15c0.17,0.21,0.46,0.22,0.68,0.08c0.45-0.32,0.85-0.73,1.16-1.19c0.09,0.34,0.22,0.68,0.4,0.99
	c0.14,0.24,0.49,0.41,0.73,0.18c0.24-0.22,0.41-0.47,0.55-0.72c0.36,0.76,0.86,1.31,1.57,1.16c1.08-0.22,1.16-1.27,0.98-2.38
	c0.33,0.56,0.7,1.1,1.22,1.54c0.22,0.19,0.62,0.07,0.71-0.2c0.12-0.39,0.16-0.76,0.14-1.12c0.19,0.08,0.39,0.14,0.62,0.16
	c0.27,0.03,0.5-0.18,0.53-0.43c0.28,0.04,0.55-0.24,0.49-0.52c-0.07-0.4-0.19-0.77-0.32-1.14c0.37,0.14,0.76,0.26,1.17,0.27
	c0.4,0.02,0.67-0.42,0.41-0.75c-0.08-0.1-0.17-0.19-0.25-0.28c0.14,0.03,0.27,0.06,0.42,0.07c0.37,0.04,0.61-0.34,0.48-0.67
	c-0.02-0.04-0.04-0.07-0.06-0.11c0.53,0.21,1.09,0.32,1.71,0.23c0.37-0.05,0.5-0.48,0.3-0.77c-0.09-0.12-0.18-0.23-0.27-0.33
	c0.06,0.01,0.13,0.03,0.19,0.04c0.52,0.11,0.64-0.58,0.33-0.86c-0.54-0.5-1.13-0.93-1.74-1.33c0.42,0.02,0.85-0.03,1.28-0.21
	c0.23-0.09,0.38-0.41,0.25-0.64c-0.01-0.02-0.03-0.04-0.04-0.06c0-0.1,0.02-0.19,0-0.31c-0.02-0.13-0.06-0.25-0.1-0.36
	c0.14-0.06,0.28-0.1,0.42-0.18c0.25-0.14,0.41-0.5,0.18-0.74c-0.1-0.1-0.2-0.19-0.31-0.27c0.65-0.26,1.06-0.7,0.82-1.5
	c-0.07-0.24-0.21-0.4-0.38-0.51c-0.03-0.06-0.06-0.13-0.09-0.19c0.19,0.07,0.38,0.12,0.58,0.16c0.42,0.09,0.62-0.45,0.41-0.75
	c-0.32-0.44-0.69-0.83-1.08-1.19c0.01-0.01,0.03-0.03,0.04-0.04c0.48,0.02,0.97-0.03,1.49-0.2c0.35-0.11,0.32-0.57,0.09-0.77
	c-0.29-0.25-0.58-0.48-0.9-0.68c0.49-0.16,0.97-0.39,1.39-0.7c0.24-0.18,0.23-0.57-0.02-0.74C72.69,33.43,71.53,33.19,70.37,33.25z
	 M33.44,85.75c-0.03-0.07-0.09-0.13-0.17-0.16c0.08-0.03,0.16-0.05,0.25-0.06c0.08-0.01,0.09-0.08,0.06-0.14
	c0.06-0.01,0.12-0.02,0.18-0.03c0.31-0.03,0.62,0,0.93-0.07c-0.02,0.03-0.04,0.06-0.03,0.1c0,0.12,0.04,0.22,0.09,0.31
	c-0.12-0.07-0.25-0.14-0.36-0.23c-0.22-0.17-0.51,0.09-0.37,0.3c-0.1,0-0.2-0.01-0.3,0C33.63,85.77,33.54,85.76,33.44,85.75z
	 M50.68,22.07c0.02,0.33,0.06,0.67,0.15,1c0.07,0.23,0.28,0.37,0.51,0.27c0.16-0.06,0.31-0.14,0.44-0.22c0.01,0.4,0.1,0.8,0.28,1.17
	c-0.13,0.14-0.24,0.3-0.34,0.46c-0.11-0.37-0.39-0.66-0.88-0.81c-0.51-0.16-1.01,0.05-1.46,0.4c0.22-0.63-0.13-1.38-0.68-2.03
	c0.08,0.04,0.17,0.07,0.26,0.08c0.43,0.05,0.79-0.06,1.1-0.25C50.3,22.22,50.5,22.19,50.68,22.07z M50.56,28.22
	c0.01-0.02,0.02-0.04,0.04-0.06c0,0.02,0,0.04-0.01,0.06C50.59,28.22,50.57,28.22,50.56,28.22z M51.52,26.35
	c0.04,0.02,0.09,0.04,0.14,0.04c0.37,0.03,0.73,0.02,1.08-0.01c-0.01,0.1,0.01,0.2,0.08,0.27c0.29,0.32,0.62,0.5,0.97,0.62
	c0.17,0.55,0.5,0.77,1.1,0.31c0.05-0.03,0.06-0.08,0.07-0.12c0.14,0.01,0.29,0.02,0.43,0.03c-0.5,0.17-0.99,0.36-1.44,0.73
	c-0.26,0.21-0.16,0.56,0.11,0.7c0.07,0.04,0.14,0.06,0.21,0.1c-0.18,0.01-0.36,0.12-0.37,0.33c0,0.07,0,0.14,0,0.21
	c-0.13-0.62-0.78-1.1-1.37-1.26c-0.19-0.05-0.39-0.08-0.59-0.1c-0.21-0.26-0.48-0.47-0.85-0.5c-0.09-0.01-0.17,0.02-0.24,0.06
	c0.13-0.23,0.24-0.46,0.31-0.68C51.31,26.83,51.42,26.59,51.52,26.35z M46.03,22.45c-0.18,0.04-0.35,0.1-0.49,0.2
	c0.02-0.01,0.04-0.02,0.06-0.04c0.14-0.15,0.28-0.31,0.42-0.46c0,0.03,0,0.05,0,0.08C46.02,22.3,46.03,22.37,46.03,22.45z
	 M43.87,21.41c-0.04-0.21-0.11-0.4-0.21-0.57c0.13-0.05,0.24-0.13,0.33-0.21c0.09,0.16,0.19,0.29,0.29,0.43
	C44.13,21.14,43.99,21.26,43.87,21.41z M41.79,20.05c0.11,0.15,0.22,0.29,0.34,0.41c-0.51,0.13-0.86,0.38-1.1,0.72
	c-0.02-0.04-0.03-0.07-0.06-0.1c-0.33-0.35-0.72-0.47-1.14-0.5c0.02-0.05,0.04-0.1,0.06-0.15c0.04-0.19,0.04-0.37-0.01-0.53
	c0.07,0.01,0.13-0.01,0.19-0.03C40.63,20.05,41.22,20.13,41.79,20.05z M33.83,40.12c0-0.02,0-0.04,0-0.06c0,0,0.01-0.01,0.01-0.01
	C33.83,40.07,33.83,40.1,33.83,40.12z M45.04,23.2c-0.01-0.02-0.01-0.04-0.02-0.05c0.02-0.08,0.03-0.16,0.05-0.24
	c0.08-0.43-0.44-0.59-0.73-0.38c-0.08-0.03-0.16-0.07-0.25-0.08c-0.07-0.01-0.14,0.01-0.2,0.03c0.01-0.15,0.02-0.29,0.02-0.44
	c0.24,0.3,0.64,0.36,1.04,0.26c-0.11,0.3,0.25,0.49,0.51,0.39C45.3,22.83,45.16,23,45.04,23.2z M45.24,39.3
	c0.03,0.01,0.06,0.01,0.09,0.01c0.33,0.3,0.66,0.61,1,0.91c-0.44,0.08-0.86,0.25-1.23,0.52c0.04-0.03,0.07-0.07,0.09-0.12
	C45.39,40.18,45.37,39.73,45.24,39.3z M47.29,40.87C47.29,40.87,47.29,40.87,47.29,40.87c-0.46,0.21-0.99,0.49-1.47,0.41
	C46.24,40.99,46.76,40.87,47.29,40.87z M47.43,25.25c-0.01-0.02-0.01-0.04-0.02-0.06c0.06-0.03,0.12-0.05,0.17-0.09
	c0,0,0.01,0,0.01-0.01c0.02,0.01,0.03,0.01,0.05,0.02C47.57,25.15,47.51,25.2,47.43,25.25z M24.75,44.69
	c0.18,0.27,0.38,0.52,0.63,0.74c0.15,0.13,0.43,0.09,0.54-0.08c0.2-0.31,0.31-0.62,0.36-0.94c0.47,0.51,1.04,0.89,1.66,0.99
	c0.1,0.41,0.2,0.82,0.31,1.23c0.07,0.23,0.13,0.46,0.21,0.68c-0.25-0.2-0.52-0.39-0.79-0.57v0c-0.24-0.15-0.48-0.29-0.74-0.43
	c-0.88-0.45-1.77-0.84-2.62-1.28c0.01-0.02,0.03-0.04,0.04-0.06C24.48,44.92,24.62,44.82,24.75,44.69z M35.16,48.42
	c-0.45-0.72-0.52-1.79-0.62-2.55c-0.13-0.95-0.15-1.8-0.02-2.72c0.1,0.05,0.21,0.07,0.33,0.01c0.37-0.17,0.68-0.41,0.96-0.68
	c0.41,0.73,1.07,1.33,1.81,1.67c-0.02,0.07-0.05,0.14-0.07,0.21c-0.08,0.26-0.15,0.52-0.22,0.78C36.8,46.41,36.25,47.82,35.16,48.42
	z M48.65,47.43c-1.53,0.52-2.95,1.89-4.57,2.06c-0.05,0-0.1,0.01-0.14,0.01c-1.68,0.1-3.36-0.07-5.04,0.1h0
	c-0.71,0.08-1.39,0.24-1.93,0.61c0.01-0.28,0.03-0.56,0.07-0.83c0.01-0.1,0.02-0.21,0.04-0.31c0.05-0.32,0.12-0.64,0.21-0.95
	c0.38-1.22,0.97-2.42,1.49-3.61c0.09,0.1,0.17,0.21,0.26,0.3c0.2,0.2,0.5,0.23,0.69-0.01c0.53-0.66,0.7-1.45,0.66-2.25
	c0.09,0,0.17-0.04,0.22-0.11c0.4,0.65,0.89,1.23,1.52,1.64c0.19,0.12,0.51,0.13,0.63-0.09c0.36-0.64,0.38-1.27,0.23-1.89
	c0.41,0.16,0.86,0.22,1.34,0.11c0.21-0.05,0.38-0.23,0.33-0.46c-0.13-0.68-0.45-1.34-0.89-1.9c0-0.03,0.01-0.05,0.01-0.08
	c0.15,0.03,0.31,0.03,0.48-0.01c0.04,0.35,0.15,0.69,0.41,0.95c0.12,0.12,0.27,0.13,0.39,0.06c-0.13,0.1-0.26,0.21-0.38,0.34
	c-0.13,0.14-0.11,0.42,0.01,0.55c0.6,0.66,2.02,0.73,2.87,0.21c0.18,0.23,0.44,0.41,0.74,0.54c-0.22,0.05-0.44,0.11-0.65,0.18
	c-0.68,0.23-1.2,0.6-1.35,1.32c-0.05,0.23,0.17,0.43,0.37,0.45c0.28,0.04,0.7,0.04,1.02-0.09c0.06,0.09,0.13,0.17,0.21,0.24
	c-0.53,0.25-1.11,0.56-1.37,1.08c-0.31,0.64,0.25,1.4,0.93,1.45c0.37,0.02,0.65-0.17,0.86-0.44c0.36,0.22,0.87,0.26,1.42,0.21
	c-0.09,0.11-0.18,0.22-0.27,0.34C49.18,47.25,48.92,47.33,48.65,47.43z M27.79,42.84c-0.11-0.24-0.22-0.47-0.34-0.7l-0.01-0.1
	c0.02,0.01,0.04,0.01,0.05,0.02c0.59,0.76,1.32,1.43,1.93,0.98c0.23-0.17,0.37-0.36,0.45-0.58c0.38,0.45,0.79,0.86,1.19,1.18
	c0.2,0.16,0.5,0.05,0.6-0.17c0.4-0.95-0.08-2.06-0.81-2.99c0.12-0.44,0.08-0.92-0.05-1.39c0.45-0.06,0.91-0.25,1.29-0.55
	c0.07,0.53,0.19,1.05,0.34,1.6c0.06,0.2,0.24,0.4,0.47,0.34c0.04-0.01,0.07-0.03,0.11-0.04c-0.05,1.08-0.09,2.15-0.16,3.23
	c-0.09,1.62-0.2,3.25-0.42,4.86c-0.11,0.83-0.31,1.71-0.42,2.58c-0.05-0.09-0.12-0.18-0.18-0.27c0,0,0-0.01,0-0.01
	c-0.05-0.08-0.11-0.17-0.17-0.25c-0.06-0.09-0.13-0.19-0.19-0.28c-0.09-0.12-0.18-0.24-0.27-0.36c-0.19-0.25-0.38-0.5-0.56-0.76
	c-0.02-0.02-0.03-0.04-0.05-0.07c-0.16-0.22-0.31-0.44-0.45-0.68c-0.59-0.96-1.05-2-1.42-3.06c0.05-0.01,0.1-0.02,0.14-0.03
	c0.19-0.06,0.24-0.26,0.23-0.43C29.07,44.04,28.48,43.36,27.79,42.84z M35.74,85.22c-0.14-0.06-0.29-0.12-0.44-0.14
	c-0.14-0.02-0.23,0.09-0.24,0.2c0,0,0,0,0-0.01c-0.03-0.07-0.09-0.09-0.15-0.09c0.03-0.04,0.05-0.1,0.05-0.15
	c0.19-0.03,0.38-0.06,0.57-0.09c0.08,0.08,0.18,0.14,0.29,0.19C35.78,85.16,35.75,85.19,35.74,85.22z M20.34,85.57
	c-0.01,0.02-0.01,0.03-0.02,0.05c-0.03-0.05-0.06-0.1-0.09-0.14C20.26,85.51,20.3,85.54,20.34,85.57z M67.62,39.04
	c-0.04-0.07-0.08-0.14-0.12-0.22c0.11,0,0.22,0,0.33,0c0.1,0.02,0.19,0.04,0.29,0.07c0.07,0.06,0.15,0.11,0.22,0.17
	C68.1,39.04,67.86,39.03,67.62,39.04z M24.51,83.31c0,0.05,0,0.1-0.01,0.14c-0.03-0.1-0.05-0.2-0.08-0.29
	C24.45,83.21,24.48,83.26,24.51,83.31z M18.99,84.49c0,0.01,0,0.02,0,0.02c-0.05,0-0.1,0.02-0.15,0.05
	c-0.07-0.12-0.14-0.24-0.24-0.35C18.73,84.31,18.86,84.4,18.99,84.49z M18.02,85.32c0.09,0.1,0.18,0.22,0.26,0.34
	c-0.06-0.02-0.13-0.02-0.19-0.04c-0.05-0.13-0.1-0.26-0.16-0.38C17.96,85.27,17.99,85.3,18.02,85.32z M37.25,85.22
	c0.13,0.12,0.25,0.25,0.36,0.39C37.48,85.49,37.35,85.36,37.25,85.22z M37.93,85.91c0.03-0.01,0.06-0.04,0.06-0.08
	c0.01,0.02,0.02,0.03,0.04,0.05c0.02,0.06,0.04,0.12,0.06,0.17C38.03,86.01,37.98,85.96,37.93,85.91z M46.32,85.99
	c0.07-0.05,0.13-0.11,0.19-0.16c-0.04,0.04-0.07,0.08-0.07,0.13C46.4,85.97,46.36,85.97,46.32,85.99z M46.66,85.7
	c-0.01,0.01-0.03,0.02-0.04,0.03c0.01-0.01,0.02-0.01,0.02-0.02C46.65,85.71,46.66,85.7,46.66,85.7z M63.9,49.08
	c0.23,0.21,0.45,0.43,0.68,0.63c0.05,0.19,0.08,0.39,0.09,0.59C64.38,49.93,64.14,49.51,63.9,49.08z"/>
</svg>
