<?xml version="1.0" encoding="UTF-8"?><svg xmlns="http://www.w3.org/2000/svg" xmlns:xlink="http://www.w3.org/1999/xlink" fill-opacity="1" color-rendering="auto" color-interpolation="auto" text-rendering="auto" stroke="black" stroke-linecap="square" width="1090" stroke-miterlimit="10" shape-rendering="auto" stroke-opacity="1" fill="black" stroke-dasharray="none" font-weight="normal" stroke-width="1" height="610" font-family="'Dialog'" font-style="normal" stroke-linejoin="miter" font-size="12px" stroke-dashoffset="0" image-rendering="auto">
  <!--Generated by ySVG 2.6-->
  <defs id="genericDefs"/>
  <g>
    <defs id="defs1">
      <linearGradient x1="140" gradientUnits="userSpaceOnUse" x2="220" y1="70" y2="110" id="linearGradient1" spreadMethod="reflect">
        <stop stop-opacity="1" stop-color="rgb(232,238,247)" offset="0%"/>
        <stop stop-opacity="1" stop-color="rgb(183,201,227)" offset="100%"/>
      </linearGradient>
      <linearGradient x1="88" gradientUnits="userSpaceOnUse" x2="272" y1="160" y2="200" id="linearGradient2" spreadMethod="reflect">
        <stop stop-opacity="1" stop-color="rgb(232,238,247)" offset="0%"/>
        <stop stop-opacity="1" stop-color="rgb(183,201,227)" offset="100%"/>
      </linearGradient>
      <linearGradient x1="123" gradientUnits="userSpaceOnUse" x2="237" y1="260" y2="340" id="linearGradient3" spreadMethod="reflect">
        <stop stop-opacity="1" stop-color="rgb(232,238,247)" offset="0%"/>
        <stop stop-opacity="1" stop-color="rgb(183,201,227)" offset="100%"/>
      </linearGradient>
      <linearGradient x1="123" gradientUnits="userSpaceOnUse" x2="237" y1="400" y2="480" id="linearGradient4" spreadMethod="reflect">
        <stop stop-opacity="1" stop-color="rgb(232,238,247)" offset="0%"/>
        <stop stop-opacity="1" stop-color="rgb(183,201,227)" offset="100%"/>
      </linearGradient>
      <linearGradient x1="333" gradientUnits="userSpaceOnUse" x2="447" y1="400" y2="480" id="linearGradient5" spreadMethod="reflect">
        <stop stop-opacity="1" stop-color="rgb(232,238,247)" offset="0%"/>
        <stop stop-opacity="1" stop-color="rgb(183,201,227)" offset="100%"/>
      </linearGradient>
      <linearGradient x1="307" gradientUnits="userSpaceOnUse" x2="473" y1="280" y2="320" id="linearGradient6" spreadMethod="reflect">
        <stop stop-opacity="1" stop-color="rgb(232,238,247)" offset="0%"/>
        <stop stop-opacity="1" stop-color="rgb(183,201,227)" offset="100%"/>
      </linearGradient>
      <linearGradient x1="547" gradientUnits="userSpaceOnUse" x2="713" y1="280" y2="320" id="linearGradient7" spreadMethod="reflect">
        <stop stop-opacity="1" stop-color="rgb(232,238,247)" offset="0%"/>
        <stop stop-opacity="1" stop-color="rgb(183,201,227)" offset="100%"/>
      </linearGradient>
      <linearGradient x1="783" gradientUnits="userSpaceOnUse" x2="897" y1="260" y2="340" id="linearGradient8" spreadMethod="reflect">
        <stop stop-opacity="1" stop-color="rgb(232,238,247)" offset="0%"/>
        <stop stop-opacity="1" stop-color="rgb(183,201,227)" offset="100%"/>
      </linearGradient>
      <linearGradient x1="757" gradientUnits="userSpaceOnUse" x2="923" y1="160" y2="200" id="linearGradient9" spreadMethod="reflect">
        <stop stop-opacity="1" stop-color="rgb(232,238,247)" offset="0%"/>
        <stop stop-opacity="1" stop-color="rgb(183,201,227)" offset="100%"/>
      </linearGradient>
      <linearGradient x1="719" gradientUnits="userSpaceOnUse" x2="961" y1="420" y2="460" id="linearGradient10" spreadMethod="reflect">
        <stop stop-opacity="1" stop-color="rgb(232,238,247)" offset="0%"/>
        <stop stop-opacity="1" stop-color="rgb(183,201,227)" offset="100%"/>
      </linearGradient>
      <linearGradient x1="744" gradientUnits="userSpaceOnUse" x2="936" y1="520" y2="560" id="linearGradient11" spreadMethod="reflect">
        <stop stop-opacity="1" stop-color="rgb(232,238,247)" offset="0%"/>
        <stop stop-opacity="1" stop-color="rgb(183,201,227)" offset="100%"/>
      </linearGradient>
      <linearGradient x1="573" gradientUnits="userSpaceOnUse" x2="687" y1="500" y2="580" id="linearGradient12" spreadMethod="reflect">
        <stop stop-opacity="1" stop-color="rgb(232,238,247)" offset="0%"/>
        <stop stop-opacity="1" stop-color="rgb(183,201,227)" offset="100%"/>
      </linearGradient>
      <linearGradient x1="800" gradientUnits="userSpaceOnUse" x2="880" y1="70" y2="110" id="linearGradient13" spreadMethod="reflect">
        <stop stop-opacity="1" stop-color="rgb(232,238,247)" offset="0%"/>
        <stop stop-opacity="1" stop-color="rgb(183,201,227)" offset="100%"/>
      </linearGradient>
      <linearGradient x1="480" gradientUnits="userSpaceOnUse" x2="540" y1="160" y2="200" id="linearGradient14" spreadMethod="reflect">
        <stop stop-opacity="1" stop-color="rgb(232,238,247)" offset="0%"/>
        <stop stop-opacity="1" stop-color="rgb(183,201,227)" offset="100%"/>
      </linearGradient>
      <linearGradient x1="1050" gradientUnits="userSpaceOnUse" x2="1110" y1="420" y2="460" id="linearGradient15" spreadMethod="reflect">
        <stop stop-opacity="1" stop-color="rgb(232,238,247)" offset="0%"/>
        <stop stop-opacity="1" stop-color="rgb(183,201,227)" offset="100%"/>
      </linearGradient>
      <linearGradient x1="450" gradientUnits="userSpaceOnUse" x2="510" y1="610" y2="650" id="linearGradient16" spreadMethod="reflect">
        <stop stop-opacity="1" stop-color="rgb(232,238,247)" offset="0%"/>
        <stop stop-opacity="1" stop-color="rgb(183,201,227)" offset="100%"/>
      </linearGradient>
      <linearGradient x1="1040" gradientUnits="userSpaceOnUse" x2="1120" y1="160" y2="200" id="linearGradient17" spreadMethod="reflect">
        <stop stop-opacity="1" stop-color="rgb(232,238,247)" offset="0%"/>
        <stop stop-opacity="1" stop-color="rgb(183,201,227)" offset="100%"/>
      </linearGradient>
      <clipPath clipPathUnits="userSpaceOnUse" id="clipPath1">
        <path d="M0 0 L1090 0 L1090 610 L0 610 L0 0 Z"/>
      </clipPath>
      <clipPath clipPathUnits="userSpaceOnUse" id="clipPath2">
        <path d="M45 55 L1135 55 L1135 665 L45 665 L45 55 Z"/>
      </clipPath>
    </defs>
    <g fill="white" text-rendering="geometricPrecision" shape-rendering="geometricPrecision" transform="translate(-45,-55)" stroke="white">
      <rect x="45" width="1090" height="610" y="55" clip-path="url(#clipPath2)" stroke="none"/>
    </g>
    <g fill="url(#linearGradient1)" text-rendering="geometricPrecision" shape-rendering="geometricPrecision" transform="matrix(1,0,0,1,-45,-55)" stroke="url(#linearGradient1)">
      <ellipse rx="40" ry="20" clip-path="url(#clipPath2)" cx="180" cy="90" stroke="none"/>
    </g>
    <g text-rendering="geometricPrecision" stroke-miterlimit="1.45" shape-rendering="geometricPrecision" transform="matrix(1,0,0,1,-45,-55)" stroke-linecap="butt">
      <ellipse rx="40" fill="none" ry="20" clip-path="url(#clipPath2)" cx="180" cy="90"/>
      <text x="167.3291" xml:space="preserve" y="94.7139" clip-path="url(#clipPath2)" font-family="sans-serif" stroke="none">Start</text>
    </g>
    <g fill="url(#linearGradient2)" text-rendering="geometricPrecision" shape-rendering="geometricPrecision" transform="matrix(1,0,0,1,-45,-55)" stroke="url(#linearGradient2)">
      <path d="M88 160 L272 160 L272 200 L88 200 Z" stroke="none" clip-path="url(#clipPath2)"/>
    </g>
    <g text-rendering="geometricPrecision" stroke-miterlimit="1.45" shape-rendering="geometricPrecision" transform="matrix(1,0,0,1,-45,-55)" stroke-linecap="butt">
      <path fill="none" d="M88 160 L272 160 L272 200 L88 200 Z" clip-path="url(#clipPath2)"/>
      <text x="120.6357" xml:space="preserve" y="184.7139" clip-path="url(#clipPath2)" font-family="sans-serif" stroke="none">Kollegiat sucht Thema</text>
    </g>
    <g fill="url(#linearGradient3)" text-rendering="geometricPrecision" shape-rendering="geometricPrecision" transform="matrix(1,0,0,1,-45,-55)" stroke="url(#linearGradient3)">
      <path d="M180 260 L237 300 L180 340 L123 300 Z" stroke="none" clip-path="url(#clipPath2)"/>
    </g>
    <g text-rendering="geometricPrecision" stroke-miterlimit="1.45" shape-rendering="geometricPrecision" transform="matrix(1,0,0,1,-45,-55)" stroke-linecap="butt">
      <path fill="none" d="M180 260 L237 300 L180 340 L123 300 Z" clip-path="url(#clipPath2)"/>
      <text x="159.3281" xml:space="preserve" y="304.7139" clip-path="url(#clipPath2)" font-family="sans-serif" stroke="none">existiert</text>
    </g>
    <g fill="url(#linearGradient4)" text-rendering="geometricPrecision" shape-rendering="geometricPrecision" transform="matrix(1,0,0,1,-45,-55)" stroke="url(#linearGradient4)">
      <path d="M180 400 L237 440 L180 480 L123 440 Z" stroke="none" clip-path="url(#clipPath2)"/>
    </g>
    <g text-rendering="geometricPrecision" stroke-miterlimit="1.45" shape-rendering="geometricPrecision" transform="matrix(1,0,0,1,-45,-55)" stroke-linecap="butt">
      <path fill="none" d="M180 400 L237 440 L180 480 L123 440 Z" clip-path="url(#clipPath2)"/>
      <text x="157.9893" xml:space="preserve" y="444.7139" clip-path="url(#clipPath2)" font-family="sans-serif" stroke="none">gesperrt</text>
    </g>
    <g fill="url(#linearGradient5)" text-rendering="geometricPrecision" shape-rendering="geometricPrecision" transform="matrix(1,0,0,1,-45,-55)" stroke="url(#linearGradient5)">
      <path d="M390 400 L447 440 L390 480 L333 440 Z" stroke="none" clip-path="url(#clipPath2)"/>
    </g>
    <g text-rendering="geometricPrecision" stroke-miterlimit="1.45" shape-rendering="geometricPrecision" transform="matrix(1,0,0,1,-45,-55)" stroke-linecap="butt">
      <path fill="none" d="M390 400 L447 440 L390 480 L333 440 Z" clip-path="url(#clipPath2)"/>
      <text x="373.6523" xml:space="preserve" y="444.7139" clip-path="url(#clipPath2)" font-family="sans-serif" stroke="none">belegt</text>
    </g>
    <g fill="url(#linearGradient6)" text-rendering="geometricPrecision" shape-rendering="geometricPrecision" transform="matrix(1,0,0,1,-45,-55)" stroke="url(#linearGradient6)">
      <path d="M307 280 L473 280 L473 320 L307 320 Z" stroke="none" clip-path="url(#clipPath2)"/>
    </g>
    <g text-rendering="geometricPrecision" stroke-miterlimit="1.45" shape-rendering="geometricPrecision" transform="matrix(1,0,0,1,-45,-55)" stroke-linecap="butt">
      <path fill="none" d="M307 280 L473 280 L473 320 L307 320 Z" clip-path="url(#clipPath2)"/>
      <text x="348.3047" xml:space="preserve" y="304.7139" clip-path="url(#clipPath2)" font-family="sans-serif" stroke="none">Thema anlegen</text>
    </g>
    <g fill="url(#linearGradient7)" text-rendering="geometricPrecision" shape-rendering="geometricPrecision" transform="matrix(1,0,0,1,-45,-55)" stroke="url(#linearGradient7)">
      <path d="M547 280 L713 280 L713 320 L547 320 Z" stroke="none" clip-path="url(#clipPath2)"/>
    </g>
    <g text-rendering="geometricPrecision" stroke-miterlimit="1.45" shape-rendering="geometricPrecision" transform="matrix(1,0,0,1,-45,-55)" stroke-linecap="butt">
      <path fill="none" d="M547 280 L713 280 L713 320 L547 320 Z" clip-path="url(#clipPath2)"/>
      <text x="569.9736" xml:space="preserve" y="304.7139" clip-path="url(#clipPath2)" font-family="sans-serif" stroke="none">Tutor überprüft Thema</text>
    </g>
    <g fill="url(#linearGradient8)" text-rendering="geometricPrecision" shape-rendering="geometricPrecision" transform="matrix(1,0,0,1,-45,-55)" stroke="url(#linearGradient8)">
      <path d="M840 260 L897 300 L840 340 L783 300 Z" stroke="none" clip-path="url(#clipPath2)"/>
    </g>
    <g text-rendering="geometricPrecision" stroke-miterlimit="1.45" shape-rendering="geometricPrecision" transform="matrix(1,0,0,1,-45,-55)" stroke-linecap="butt">
      <path fill="none" d="M840 260 L897 300 L840 340 L783 300 Z" clip-path="url(#clipPath2)"/>
      <text x="811.9805" xml:space="preserve" y="304.7139" clip-path="url(#clipPath2)" font-family="sans-serif" stroke="none">genehmigt</text>
    </g>
    <g fill="url(#linearGradient9)" text-rendering="geometricPrecision" shape-rendering="geometricPrecision" transform="matrix(1,0,0,1,-45,-55)" stroke="url(#linearGradient9)">
      <path d="M757 160 L923 160 L923 200 L757 200 Z" stroke="none" clip-path="url(#clipPath2)"/>
    </g>
    <g text-rendering="geometricPrecision" stroke-miterlimit="1.45" shape-rendering="geometricPrecision" transform="matrix(1,0,0,1,-45,-55)" stroke-linecap="butt">
      <path fill="none" d="M757 160 L923 160 L923 200 L757 200 Z" clip-path="url(#clipPath2)"/>
      <text x="773.959" xml:space="preserve" y="184.7139" clip-path="url(#clipPath2)" font-family="sans-serif" stroke="none">Thema auf belegt setzen</text>
    </g>
    <g fill="url(#linearGradient10)" text-rendering="geometricPrecision" shape-rendering="geometricPrecision" transform="matrix(1,0,0,1,-45,-55)" stroke="url(#linearGradient10)">
      <path d="M719 420 L961 420 L961 460 L719 460 Z" stroke="none" clip-path="url(#clipPath2)"/>
    </g>
    <g text-rendering="geometricPrecision" stroke-miterlimit="1.45" shape-rendering="geometricPrecision" transform="matrix(1,0,0,1,-45,-55)" stroke-linecap="butt">
      <path fill="none" d="M719 420 L961 420 L961 460 L719 460 Z" clip-path="url(#clipPath2)"/>
      <text x="751.623" xml:space="preserve" y="444.7139" clip-path="url(#clipPath2)" font-family="sans-serif" stroke="none">Tutor macht Änderungsvorschlag</text>
    </g>
    <g fill="url(#linearGradient11)" text-rendering="geometricPrecision" shape-rendering="geometricPrecision" transform="matrix(1,0,0,1,-45,-55)" stroke="url(#linearGradient11)">
      <path d="M744 520 L936 520 L936 560 L744 560 Z" stroke="none" clip-path="url(#clipPath2)"/>
    </g>
    <g text-rendering="geometricPrecision" stroke-miterlimit="1.45" shape-rendering="geometricPrecision" transform="matrix(1,0,0,1,-45,-55)" stroke-linecap="butt">
      <path fill="none" d="M744 520 L936 520 L936 560 L744 560 Z" clip-path="url(#clipPath2)"/>
      <text x="762.9551" xml:space="preserve" y="544.7139" clip-path="url(#clipPath2)" font-family="sans-serif" stroke="none">Kollegiat überprüft Vorschlag</text>
    </g>
    <g fill="url(#linearGradient12)" text-rendering="geometricPrecision" shape-rendering="geometricPrecision" transform="matrix(1,0,0,1,-45,-55)" stroke="url(#linearGradient12)">
      <path d="M630 500 L687 540 L630 580 L573 540 Z" stroke="none" clip-path="url(#clipPath2)"/>
    </g>
    <g text-rendering="geometricPrecision" stroke-miterlimit="1.45" shape-rendering="geometricPrecision" transform="matrix(1,0,0,1,-45,-55)" stroke-linecap="butt">
      <path fill="none" d="M630 500 L687 540 L630 580 L573 540 Z" clip-path="url(#clipPath2)"/>
      <text x="592.3066" xml:space="preserve" y="544.7139" clip-path="url(#clipPath2)" font-family="sans-serif" stroke="none">einverstanden</text>
    </g>
    <g fill="url(#linearGradient13)" text-rendering="geometricPrecision" shape-rendering="geometricPrecision" transform="matrix(1,0,0,1,-45,-55)" stroke="url(#linearGradient13)">
      <rect x="800" y="70" clip-path="url(#clipPath2)" width="80" rx="20" ry="20" height="40" stroke="none"/>
    </g>
    <g text-rendering="geometricPrecision" stroke-miterlimit="1.45" shape-rendering="geometricPrecision" transform="matrix(1,0,0,1,-45,-55)" stroke-linecap="butt">
      <rect x="800" y="70" clip-path="url(#clipPath2)" fill="none" width="80" rx="20" ry="20" height="40"/>
      <text x="825.9873" xml:space="preserve" y="94.7139" clip-path="url(#clipPath2)" font-family="sans-serif" stroke="none">Ende</text>
    </g>
    <g fill="url(#linearGradient14)" text-rendering="geometricPrecision" shape-rendering="geometricPrecision" transform="matrix(1,0,0,1,-45,-55)" stroke="url(#linearGradient14)">
      <path d="M480 168 C481.8 160 538.2 160 540 168 L540 192 C538.2 200 481.8 200 480 192 Z" stroke="none" clip-path="url(#clipPath2)"/>
    </g>
    <g text-rendering="geometricPrecision" stroke-miterlimit="1.45" shape-rendering="geometricPrecision" transform="matrix(1,0,0,1,-45,-55)" stroke-linecap="butt">
      <path fill="none" d="M480 168 C481.8 160 538.2 160 540 168 L540 192 C538.2 200 481.8 200 480 192 Z" clip-path="url(#clipPath2)"/>
      <path fill="none" d="M540 168 C538.2 176 481.8 176 480 168" clip-path="url(#clipPath2)"/>
    </g>
    <g fill="url(#linearGradient15)" text-rendering="geometricPrecision" shape-rendering="geometricPrecision" transform="matrix(1,0,0,1,-45,-55)" stroke="url(#linearGradient15)">
      <path d="M1050 428 C1051.8 420 1108.2 420 1110 428 L1110 452 C1108.2 460 1051.8 460 1050 452 Z" stroke="none" clip-path="url(#clipPath2)"/>
    </g>
    <g text-rendering="geometricPrecision" stroke-miterlimit="1.45" shape-rendering="geometricPrecision" transform="matrix(1,0,0,1,-45,-55)" stroke-linecap="butt">
      <path fill="none" d="M1050 428 C1051.8 420 1108.2 420 1110 428 L1110 452 C1108.2 460 1051.8 460 1050 452 Z" clip-path="url(#clipPath2)"/>
      <path fill="none" d="M1110 428 C1108.2 436 1051.8 436 1050 428" clip-path="url(#clipPath2)"/>
    </g>
    <g fill="url(#linearGradient16)" text-rendering="geometricPrecision" shape-rendering="geometricPrecision" transform="matrix(1,0,0,1,-45,-55)" stroke="url(#linearGradient16)">
      <path d="M450 618 C451.8 610 508.2 610 510 618 L510 642 C508.2 650 451.8 650 450 642 Z" stroke="none" clip-path="url(#clipPath2)"/>
    </g>
    <g text-rendering="geometricPrecision" stroke-miterlimit="1.45" shape-rendering="geometricPrecision" transform="matrix(1,0,0,1,-45,-55)" stroke-linecap="butt">
      <path fill="none" d="M450 618 C451.8 610 508.2 610 510 618 L510 642 C508.2 650 451.8 650 450 642 Z" clip-path="url(#clipPath2)"/>
      <path fill="none" d="M510 618 C508.2 626 451.8 626 450 618" clip-path="url(#clipPath2)"/>
    </g>
    <g fill="url(#linearGradient17)" text-rendering="geometricPrecision" shape-rendering="geometricPrecision" transform="matrix(1,0,0,1,-45,-55)" stroke="url(#linearGradient17)">
      <path d="M1040 160 L1120 160 L1120 195 Q1100 185 1080 195 Q1060 205 1040 195 Z" stroke="none" clip-path="url(#clipPath2)"/>
    </g>
    <g text-rendering="geometricPrecision" stroke-miterlimit="1.45" shape-rendering="geometricPrecision" transform="matrix(1,0,0,1,-45,-55)" stroke-linecap="butt">
      <path fill="none" d="M1040 160 L1120 160 L1120 195 Q1100 185 1080 195 Q1060 205 1040 195 Z" clip-path="url(#clipPath2)"/>
      <text x="1067.9941" xml:space="preserve" y="184.7139" clip-path="url(#clipPath2)" font-family="sans-serif" stroke="none">Akte</text>
    </g>
    <g text-rendering="geometricPrecision" stroke-miterlimit="1.45" shape-rendering="geometricPrecision" transform="matrix(1,0,0,1,-45,-55)" stroke-linecap="butt">
      <path fill="none" d="M180 109.9951 L180 152.0035" clip-path="url(#clipPath2)"/>
    </g>
    <g text-rendering="geometricPrecision" stroke-miterlimit="1.45" shape-rendering="geometricPrecision" transform="matrix(1,0,0,1,-45,-55)" stroke-linecap="butt">
      <path d="M180 160.0035 L185 148.0035 L180 151.0035 L175 148.0035 Z" stroke="none" clip-path="url(#clipPath2)"/>
      <path fill="none" d="M180 200.0098 L180 252.0137" clip-path="url(#clipPath2)"/>
      <path d="M180 260.0137 L185 248.0137 L180 251.0137 L175 248.0137 Z" clip-path="url(#clipPath2)" stroke="none"/>
      <path fill="none" d="M180 340.0244 L180 392.0195" clip-path="url(#clipPath2)"/>
      <path d="M180 400.0195 L185 388.0195 L180 391.0195 L175 388.0195 Z" clip-path="url(#clipPath2)" stroke="none"/>
      <text x="203.6631" xml:space="preserve" y="359.0645" clip-path="url(#clipPath2)" font-family="sans-serif" stroke="none">Ja</text>
      <path fill="none" d="M180.397 479.6973 L181 540 L60 540 L60 180 L79.9785 180" clip-path="url(#clipPath2)"/>
      <path d="M87.9785 180 L75.9785 175 L78.9785 180 L75.9785 185 Z" clip-path="url(#clipPath2)" stroke="none"/>
      <text x="204.2081" xml:space="preserve" y="499.0645" clip-path="url(#clipPath2)" font-family="sans-serif" stroke="none">Ja</text>
      <path fill="none" d="M236.9861 440 L325.0307 440" clip-path="url(#clipPath2)"/>
      <path d="M333.0307 440 L321.0307 435 L324.0307 440 L321.0307 445 Z" clip-path="url(#clipPath2)" stroke="none"/>
      <text x="244" xml:space="preserve" y="414.7139" clip-path="url(#clipPath2)" font-family="sans-serif" stroke="none">Nein</text>
      <path fill="none" d="M390 479.9902 L390 540 L60 540 L60 180 L80.0439 180" clip-path="url(#clipPath2)"/>
      <path d="M88.0439 180 L76.0439 175 L79.0439 180 L76.0439 185 Z" clip-path="url(#clipPath2)" stroke="none"/>
      <text x="413.6631" xml:space="preserve" y="499.0645" clip-path="url(#clipPath2)" font-family="sans-serif" stroke="none">Ja</text>
      <path fill="none" d="M236.9861 300 L299.0303 300" clip-path="url(#clipPath2)"/>
      <path d="M307.0303 300 L295.0303 295 L298.0303 300 L295.0303 305 Z" clip-path="url(#clipPath2)" stroke="none"/>
      <text x="244" xml:space="preserve" y="274.7139" clip-path="url(#clipPath2)" font-family="sans-serif" stroke="none">Nein</text>
      <path fill="none" d="M472.998 300 L539.0143 300" clip-path="url(#clipPath2)"/>
      <path d="M547.0143 300 L535.0143 295 L538.0143 300 L535.0143 305 Z" clip-path="url(#clipPath2)" stroke="none"/>
      <path fill="none" d="M446.6895 439.7638 L630 439 L630 327.988" clip-path="url(#clipPath2)"/>
      <path d="M630 319.988 L625 331.988 L630 328.988 L635 331.988 Z" clip-path="url(#clipPath2)" stroke="none"/>
      <text x="454" xml:space="preserve" y="414.3955" clip-path="url(#clipPath2)" font-family="sans-serif" stroke="none">Nein</text>
      <path fill="none" d="M712.9797 300 L774.9711 300" clip-path="url(#clipPath2)"/>
      <path d="M782.9711 300 L770.9711 295 L773.9711 300 L770.9711 305 Z" clip-path="url(#clipPath2)" stroke="none"/>
      <path fill="none" d="M840 260.0098 L840 207.9634" clip-path="url(#clipPath2)"/>
      <path d="M840 199.9634 L835 211.9634 L840 208.9634 L845 211.9634 Z" clip-path="url(#clipPath2)" stroke="none"/>
      <text x="863.6631" xml:space="preserve" y="250.3633" clip-path="url(#clipPath2)" font-family="sans-serif" stroke="none">Ja</text>
      <path fill="none" d="M840 340.0244 L840 412.0342" clip-path="url(#clipPath2)"/>
      <path d="M840 420.0342 L845 408.0342 L840 411.0342 L835 408.0342 Z" clip-path="url(#clipPath2)" stroke="none"/>
      <text x="858.6562" xml:space="preserve" y="359.0645" clip-path="url(#clipPath2)" font-family="sans-serif" stroke="none">nein</text>
      <path fill="none" d="M840 459.9707 L840 512.0317" clip-path="url(#clipPath2)"/>
      <path d="M840 520.0317 L845 508.0317 L840 511.0317 L835 508.0317 Z" clip-path="url(#clipPath2)" stroke="none"/>
      <path fill="none" d="M743.9978 540 L695.0267 540" clip-path="url(#clipPath2)"/>
      <path d="M687.0267 540 L699.0267 545 L696.0267 540 L699.0267 535 Z" clip-path="url(#clipPath2)" stroke="none"/>
      <path fill="none" d="M630 500.0098 L630 327.9717" clip-path="url(#clipPath2)"/>
      <path d="M630 319.9717 L625 331.9717 L630 328.9717 L635 331.9717 Z" clip-path="url(#clipPath2)" stroke="none"/>
      <text x="655.3301" xml:space="preserve" y="490.3633" clip-path="url(#clipPath2)" font-family="sans-serif" stroke="none">ja</text>
      <path fill="none" d="M572.9791 540 L60 540 L60 180 L79.9928 180" clip-path="url(#clipPath2)"/>
      <path d="M87.9928 180 L75.9928 175 L78.9928 180 L75.9928 185 Z" clip-path="url(#clipPath2)" stroke="none"/>
      <text x="541.3203" xml:space="preserve" y="574.7139" clip-path="url(#clipPath2)" font-family="sans-serif" stroke="none">Nein</text>
      <path fill="none" d="M840 160.0049 L840 117.9965" clip-path="url(#clipPath2)"/>
      <path d="M840 109.9965 L835 121.9965 L840 118.9965 L845 121.9965 Z" clip-path="url(#clipPath2)" stroke="none"/>
      <path fill="none" stroke-dasharray="6,2" d="M389.8333 279.9902 L389.5 240 L510 240 L510 206.0176" clip-path="url(#clipPath2)"/>
      <path stroke-dasharray="6,2" d="M510 198.0176 L505 210.0176 L510 207.0176 L515 210.0176 Z" clip-path="url(#clipPath2)" stroke="none"/>
      <text x="344.935" xml:space="preserve" y="257.6636" clip-path="url(#clipPath2)" font-family="sans-serif" stroke="none">insert</text>
      <path fill="none" stroke-dasharray="6,2" d="M756.9763 180 L547.9977 180" clip-path="url(#clipPath2)"/>
      <path stroke-dasharray="6,2" d="M539.9977 180 L551.9977 185 L548.9977 180 L551.9977 175 Z" clip-path="url(#clipPath2)" stroke="none"/>
      <text x="630.1484" xml:space="preserve" y="154.7139" clip-path="url(#clipPath2)" font-family="sans-serif" stroke="none">update</text>
      <path fill="none" stroke-dasharray="6,2" d="M479.989 180 L280.0255 180" clip-path="url(#clipPath2)"/>
      <path stroke-dasharray="6,2" d="M272.0255 180 L284.0255 185 L281.0255 180 L284.0255 175 Z" clip-path="url(#clipPath2)" stroke="none"/>
      <text x="360.3262" xml:space="preserve" y="154.7139" clip-path="url(#clipPath2)" font-family="sans-serif" stroke="none">select</text>
      <path fill="none" stroke-dasharray="6,2" d="M961.0254 440 L1041.9949 440" clip-path="url(#clipPath2)"/>
      <path stroke-dasharray="6,2" d="M1049.9949 440 L1037.9949 435 L1040.9949 440 L1037.9949 445 Z" clip-path="url(#clipPath2)" stroke="none"/>
      <text x="987.1484" xml:space="preserve" y="474.7139" clip-path="url(#clipPath2)" font-family="sans-serif" stroke="none">update</text>
      <path fill="none" stroke-dasharray="6,2" d="M572.981 540 L480 540 L480 604.0264" clip-path="url(#clipPath2)"/>
      <path stroke-dasharray="6,2" d="M480 612.0264 L485 600.0264 L480 603.0264 L475 600.0264 Z" clip-path="url(#clipPath2)" stroke="none"/>
      <text x="433.6523" xml:space="preserve" y="572.5386" clip-path="url(#clipPath2)" font-family="sans-serif" stroke="none">delete</text>
      <path fill="none" d="M922.998 180 L1032.0212 180" clip-path="url(#clipPath2)"/>
      <path d="M1040.0212 180 L1028.0212 175 L1031.0212 180 L1028.0212 185 Z" clip-path="url(#clipPath2)" stroke="none"/>
      <text x="969.8281" xml:space="preserve" y="154.7139" clip-path="url(#clipPath2)" font-family="sans-serif" stroke="none">print</text>
    </g>
  </g>
</svg>
