<?xml version="1.0" encoding="UTF-8"?><svg xmlns="http://www.w3.org/2000/svg" xmlns:xlink="http://www.w3.org/1999/xlink" fill-opacity="1" color-rendering="auto" color-interpolation="auto" text-rendering="auto" stroke="black" stroke-linecap="square" width="828" stroke-miterlimit="10" shape-rendering="auto" stroke-opacity="1" fill="black" stroke-dasharray="none" font-weight="normal" stroke-width="1" height="950" font-family="'Dialog'" font-style="normal" stroke-linejoin="miter" font-size="12px" stroke-dashoffset="0" image-rendering="auto">
  <!--Generated by ySVG 2.6-->
  <defs id="genericDefs"/>
  <g>
    <defs id="defs1">
      <linearGradient x1="30" gradientUnits="userSpaceOnUse" x2="150" y1="536" y2="576" id="linearGradient1" spreadMethod="reflect">
        <stop stop-opacity="1" stop-color="rgb(232,238,247)" offset="0%"/>
        <stop stop-opacity="1" stop-color="rgb(183,201,227)" offset="100%"/>
      </linearGradient>
      <linearGradient x1="-160" gradientUnits="userSpaceOnUse" x2="-80" y1="430" y2="470" id="linearGradient2" spreadMethod="reflect">
        <stop stop-opacity="1" stop-color="rgb(232,238,247)" offset="0%"/>
        <stop stop-opacity="1" stop-color="rgb(183,201,227)" offset="100%"/>
      </linearGradient>
      <linearGradient x1="-180" gradientUnits="userSpaceOnUse" x2="-60" y1="536" y2="576" id="linearGradient3" spreadMethod="reflect">
        <stop stop-opacity="1" stop-color="rgb(232,238,247)" offset="0%"/>
        <stop stop-opacity="1" stop-color="rgb(183,201,227)" offset="100%"/>
      </linearGradient>
      <linearGradient x1="260" gradientUnits="userSpaceOnUse" x2="340" y1="536" y2="576" id="linearGradient4" spreadMethod="reflect">
        <stop stop-opacity="1" stop-color="rgb(232,238,247)" offset="0%"/>
        <stop stop-opacity="1" stop-color="rgb(183,201,227)" offset="100%"/>
      </linearGradient>
      <linearGradient x1="-180" gradientUnits="userSpaceOnUse" x2="-60" y1="670" y2="710" id="linearGradient5" spreadMethod="reflect">
        <stop stop-opacity="1" stop-color="rgb(232,238,247)" offset="0%"/>
        <stop stop-opacity="1" stop-color="rgb(183,201,227)" offset="100%"/>
      </linearGradient>
      <linearGradient x1="235" gradientUnits="userSpaceOnUse" x2="365" y1="670" y2="710" id="linearGradient6" spreadMethod="reflect">
        <stop stop-opacity="1" stop-color="rgb(232,238,247)" offset="0%"/>
        <stop stop-opacity="1" stop-color="rgb(183,201,227)" offset="100%"/>
      </linearGradient>
      <linearGradient x1="30" gradientUnits="userSpaceOnUse" x2="150" y1="670" y2="710" id="linearGradient7" spreadMethod="reflect">
        <stop stop-opacity="1" stop-color="rgb(232,238,247)" offset="0%"/>
        <stop stop-opacity="1" stop-color="rgb(183,201,227)" offset="100%"/>
      </linearGradient>
      <linearGradient x1="-186" gradientUnits="userSpaceOnUse" x2="-54" y1="780" y2="840" id="linearGradient8" spreadMethod="reflect">
        <stop stop-opacity="1" stop-color="rgb(232,238,247)" offset="0%"/>
        <stop stop-opacity="1" stop-color="rgb(183,201,227)" offset="100%"/>
      </linearGradient>
      <linearGradient x1="50" gradientUnits="userSpaceOnUse" x2="130" y1="790" y2="830" id="linearGradient9" spreadMethod="reflect">
        <stop stop-opacity="1" stop-color="rgb(232,238,247)" offset="0%"/>
        <stop stop-opacity="1" stop-color="rgb(183,201,227)" offset="100%"/>
      </linearGradient>
      <linearGradient x1="202" gradientUnits="userSpaceOnUse" x2="398" y1="790" y2="830" id="linearGradient10" spreadMethod="reflect">
        <stop stop-opacity="1" stop-color="rgb(232,238,247)" offset="0%"/>
        <stop stop-opacity="1" stop-color="rgb(183,201,227)" offset="100%"/>
      </linearGradient>
      <linearGradient x1="39" gradientUnits="userSpaceOnUse" x2="261" y1="910" y2="950" id="linearGradient11" spreadMethod="reflect">
        <stop stop-opacity="1" stop-color="rgb(232,238,247)" offset="0%"/>
        <stop stop-opacity="1" stop-color="rgb(183,201,227)" offset="100%"/>
      </linearGradient>
      <linearGradient x1="-180" gradientUnits="userSpaceOnUse" x2="-60" y1="910" y2="950" id="linearGradient12" spreadMethod="reflect">
        <stop stop-opacity="1" stop-color="rgb(232,238,247)" offset="0%"/>
        <stop stop-opacity="1" stop-color="rgb(183,201,227)" offset="100%"/>
      </linearGradient>
      <linearGradient x1="-160" gradientUnits="userSpaceOnUse" x2="-80" y1="1030" y2="1070" id="linearGradient13" spreadMethod="reflect">
        <stop stop-opacity="1" stop-color="rgb(232,238,247)" offset="0%"/>
        <stop stop-opacity="1" stop-color="rgb(183,201,227)" offset="100%"/>
      </linearGradient>
      <linearGradient x1="260" gradientUnits="userSpaceOnUse" x2="340" y1="430" y2="470" id="linearGradient14" spreadMethod="reflect">
        <stop stop-opacity="1" stop-color="rgb(232,238,247)" offset="0%"/>
        <stop stop-opacity="1" stop-color="rgb(183,201,227)" offset="100%"/>
      </linearGradient>
      <clipPath clipPathUnits="userSpaceOnUse" id="clipPath1">
        <path d="M0 0 L828 0 L828 950 L0 950 L0 0 Z"/>
      </clipPath>
      <clipPath clipPathUnits="userSpaceOnUse" id="clipPath2">
        <path d="M-201 135 L627 135 L627 1085 L-201 1085 L-201 135 Z"/>
      </clipPath>
      <clipPath clipPathUnits="userSpaceOnUse" id="clipPath3">
        <path d="M114.3369 -42 L114.3369 786 L-835.6631 786 L-835.6631 -42 L114.3369 -42 Z"/>
      </clipPath>
      <clipPath clipPathUnits="userSpaceOnUse" id="clipPath4">
        <path d="M194.3369 -42 L194.3369 786 L-755.6631 786 L-755.6631 -42 L194.3369 -42 Z"/>
      </clipPath>
      <clipPath clipPathUnits="userSpaceOnUse" id="clipPath5">
        <path d="M128.0068 -552 L128.0068 276 L-821.9932 276 L-821.9932 -552 L128.0068 -552 Z"/>
      </clipPath>
      <clipPath clipPathUnits="userSpaceOnUse" id="clipPath6">
        <path d="M208.0068 -552 L208.0068 276 L-741.9932 276 L-741.9932 -552 L208.0068 -552 Z"/>
      </clipPath>
    </defs>
    <g fill="white" text-rendering="geometricPrecision" shape-rendering="geometricPrecision" transform="translate(201,-135)" stroke="white">
      <rect x="-201" width="828" height="950" y="135" clip-path="url(#clipPath2)" stroke="none"/>
    </g>
    <g fill="rgb(236,245,255)" text-rendering="geometricPrecision" shape-rendering="geometricPrecision" transform="matrix(1,0,0,1,201,-135)" stroke="rgb(236,245,255)">
      <path d="M-162 150 L-162 180 L342 180 L342 150 Z" stroke="none" clip-path="url(#clipPath2)"/>
      <rect x="-162" width="504" height="184" y="180" clip-path="url(#clipPath2)" stroke="none"/>
      <rect x="-138" y="180" clip-path="url(#clipPath2)" fill="rgb(113,146,178)" width="119" height="24" stroke="none"/>
      <rect x="-19" y="180" clip-path="url(#clipPath2)" fill="rgb(113,146,178)" width="121" height="24" stroke="none"/>
      <rect x="102" y="180" clip-path="url(#clipPath2)" fill="rgb(113,146,178)" width="120" height="24" stroke="none"/>
      <rect x="222" y="180" clip-path="url(#clipPath2)" fill="rgb(113,146,178)" width="120" height="24" stroke="none"/>
      <rect x="-162" y="204" clip-path="url(#clipPath2)" fill="rgb(196,215,237)" width="24" height="80" stroke="none"/>
      <rect x="-138" y="204" clip-path="url(#clipPath2)" fill="rgb(196,215,237)" width="480" height="80" stroke="none"/>
      <rect x="-162" y="284" clip-path="url(#clipPath2)" fill="rgb(171,200,226)" width="24" height="80" stroke="none"/>
      <rect x="-138" y="284" clip-path="url(#clipPath2)" fill="rgb(171,200,226)" width="480" height="80" stroke="none"/>
    </g>
    <g text-rendering="geometricPrecision" stroke-miterlimit="1.45" shape-rendering="geometricPrecision" transform="matrix(1,0,0,1,201,-135)" stroke-linecap="butt">
      <rect fill="none" x="-162" width="504" height="214" y="150" clip-path="url(#clipPath2)"/>
      <rect fill="none" x="-138" width="119" height="184" y="180" clip-path="url(#clipPath2)"/>
      <rect fill="none" x="-19" width="121" height="184" y="180" clip-path="url(#clipPath2)"/>
      <rect fill="none" x="102" width="120" height="184" y="180" clip-path="url(#clipPath2)"/>
      <rect fill="none" x="222" width="120" height="184" y="180" clip-path="url(#clipPath2)"/>
      <rect fill="none" x="-162" width="504" height="80" y="204" clip-path="url(#clipPath2)"/>
      <rect fill="none" x="-162" width="504" height="80" y="284" clip-path="url(#clipPath2)"/>
    </g>
    <g font-size="15px" stroke-linecap="butt" transform="matrix(1,0,0,1,201,-135)" text-rendering="geometricPrecision" font-family="sans-serif" shape-rendering="geometricPrecision" stroke-miterlimit="1.45">
      <text x="57.4731" xml:space="preserve" y="171.0806" clip-path="url(#clipPath2)" stroke="none">Rohdaten</text>
    </g>
    <g text-rendering="geometricPrecision" stroke-miterlimit="1.45" shape-rendering="geometricPrecision" font-family="sans-serif" transform="matrix(-0,-1,1,-0,42,114.3369)" stroke-linecap="butt">
      <text x="2" xml:space="preserve" y="14.0645" clip-path="url(#clipPath3)" stroke="none">1</text>
    </g>
    <g text-rendering="geometricPrecision" stroke-miterlimit="1.45" shape-rendering="geometricPrecision" font-family="sans-serif" transform="matrix(-0,-1,1,-0,42,194.3369)" stroke-linecap="butt">
      <text x="2" xml:space="preserve" y="14.0645" clip-path="url(#clipPath4)" stroke="none">2</text>
    </g>
    <g text-rendering="geometricPrecision" stroke-miterlimit="1.45" shape-rendering="geometricPrecision" font-family="sans-serif" transform="matrix(1,0,0,1,201,-135)" stroke-linecap="butt">
      <text x="-114.1865" xml:space="preserve" y="197.0645" clip-path="url(#clipPath2)" stroke="none">Referenzfach</text>
      <text x="11.8135" xml:space="preserve" y="197.0645" clip-path="url(#clipPath2)" stroke="none">Begleitfach</text>
      <text x="138.6504" xml:space="preserve" y="197.0645" clip-path="url(#clipPath2)" stroke="none">Leitfrage</text>
      <text x="270.3281" xml:space="preserve" y="197.0645" clip-path="url(#clipPath2)" stroke="none">Jahr</text>
      <text x="-86.5068" xml:space="preserve" y="248.7139" clip-path="url(#clipPath2)" stroke="none">bio</text>
      <text x="32.1631" xml:space="preserve" y="248.7139" clip-path="url(#clipPath2)" stroke="none">psy</text>
      <text x="128.9824" xml:space="preserve" y="248.7139" clip-path="url(#clipPath2)" stroke="none">Fragestellng</text>
      <text x="270.3281" xml:space="preserve" y="248.7139" clip-path="url(#clipPath2)" stroke="none">2022</text>
    </g>
    <g fill="url(#linearGradient1)" text-rendering="geometricPrecision" shape-rendering="geometricPrecision" transform="matrix(1,0,0,1,201,-135)" stroke="url(#linearGradient1)">
      <path d="M40.2 536 L150 536 L139.8 576 L30 576 Z" stroke="none" clip-path="url(#clipPath2)"/>
    </g>
    <g text-rendering="geometricPrecision" stroke-miterlimit="1.45" shape-rendering="geometricPrecision" transform="matrix(1,0,0,1,201,-135)" stroke-linecap="butt">
      <path fill="none" d="M40.2 536 L150 536 L139.8 576 L30 576 Z" clip-path="url(#clipPath2)"/>
      <text x="51.6445" xml:space="preserve" y="560.7139" clip-path="url(#clipPath2)" font-family="sans-serif" stroke="none">Leitfrage, Jahr</text>
    </g>
    <g fill="url(#linearGradient2)" text-rendering="geometricPrecision" shape-rendering="geometricPrecision" transform="matrix(1,0,0,1,201,-135)" stroke="url(#linearGradient2)">
      <ellipse rx="40" ry="20" clip-path="url(#clipPath2)" cx="-120" cy="450" stroke="none"/>
    </g>
    <g text-rendering="geometricPrecision" stroke-miterlimit="1.45" shape-rendering="geometricPrecision" transform="matrix(1,0,0,1,201,-135)" stroke-linecap="butt">
      <ellipse rx="40" fill="none" ry="20" clip-path="url(#clipPath2)" cx="-120" cy="450"/>
      <text x="-132.6709" xml:space="preserve" y="454.7139" clip-path="url(#clipPath2)" font-family="sans-serif" stroke="none">Start</text>
    </g>
    <g fill="url(#linearGradient3)" text-rendering="geometricPrecision" shape-rendering="geometricPrecision" transform="matrix(1,0,0,1,201,-135)" stroke="url(#linearGradient3)">
      <path d="M-180 536 L-60 536 L-60 576 L-180 576 Z" stroke="none" clip-path="url(#clipPath2)"/>
    </g>
    <g text-rendering="geometricPrecision" stroke-miterlimit="1.45" shape-rendering="geometricPrecision" transform="matrix(1,0,0,1,201,-135)" stroke-linecap="butt">
      <path fill="none" d="M-180 536 L-60 536 L-60 576 L-180 576 Z" clip-path="url(#clipPath2)"/>
      <text x="-164.0361" xml:space="preserve" y="560.7139" clip-path="url(#clipPath2)" font-family="sans-serif" stroke="none">Prüfung anlegen</text>
    </g>
    <g fill="url(#linearGradient4)" text-rendering="geometricPrecision" shape-rendering="geometricPrecision" transform="matrix(1,0,0,1,201,-135)" stroke="url(#linearGradient4)">
      <rect x="260" width="80" height="40" y="536" clip-path="url(#clipPath2)" stroke="none"/>
    </g>
    <g text-rendering="geometricPrecision" stroke-miterlimit="1.45" shape-rendering="geometricPrecision" transform="matrix(1,0,0,1,201,-135)" stroke-linecap="butt">
      <rect fill="none" x="260" width="80" height="40" y="536" clip-path="url(#clipPath2)"/>
      <path fill="none" d="M270 536 L270 576 M260 546 L340 546 M270 536 Z" clip-path="url(#clipPath2)"/>
      <text x="284.6631" xml:space="preserve" y="560.7139" clip-path="url(#clipPath2)" font-family="sans-serif" stroke="none">Exam</text>
    </g>
    <g fill="url(#linearGradient5)" text-rendering="geometricPrecision" shape-rendering="geometricPrecision" transform="matrix(1,0,0,1,201,-135)" stroke="url(#linearGradient5)">
      <path d="M-180 670 L-60 670 L-60 710 L-180 710 Z" stroke="none" clip-path="url(#clipPath2)"/>
    </g>
    <g text-rendering="geometricPrecision" stroke-miterlimit="1.45" shape-rendering="geometricPrecision" transform="matrix(1,0,0,1,201,-135)" stroke-linecap="butt">
      <path fill="none" d="M-180 670 L-60 670 L-60 710 L-180 710 Z" clip-path="url(#clipPath2)"/>
      <text x="-163.0195" xml:space="preserve" y="694.7139" clip-path="url(#clipPath2)" font-family="sans-serif" stroke="none">Fächer-ID holen</text>
    </g>
    <g fill="url(#linearGradient6)" text-rendering="geometricPrecision" shape-rendering="geometricPrecision" transform="matrix(1,0,0,1,201,-135)" stroke="url(#linearGradient6)">
      <rect x="235" width="130" height="40" y="670" clip-path="url(#clipPath2)" stroke="none"/>
    </g>
    <g text-rendering="geometricPrecision" stroke-miterlimit="1.45" shape-rendering="geometricPrecision" transform="matrix(1,0,0,1,201,-135)" stroke-linecap="butt">
      <rect fill="none" x="235" width="130" height="40" y="670" clip-path="url(#clipPath2)"/>
      <path fill="none" d="M245 670 L245 710 M235 680 L365 680 M245 670 Z" clip-path="url(#clipPath2)"/>
      <text x="261.6416" xml:space="preserve" y="694.7139" clip-path="url(#clipPath2)" font-family="sans-serif" stroke="none">SchoolSubject</text>
    </g>
    <g fill="url(#linearGradient7)" text-rendering="geometricPrecision" shape-rendering="geometricPrecision" transform="matrix(1,0,0,1,201,-135)" stroke="url(#linearGradient7)">
      <path d="M40.2 670 L150 670 L139.8 710 L30 710 Z" stroke="none" clip-path="url(#clipPath2)"/>
    </g>
    <g text-rendering="geometricPrecision" stroke-miterlimit="1.45" shape-rendering="geometricPrecision" transform="matrix(1,0,0,1,201,-135)" stroke-linecap="butt">
      <path fill="none" d="M40.2 670 L150 670 L139.8 710 L30 710 Z" clip-path="url(#clipPath2)"/>
      <text x="43.6377" xml:space="preserve" y="694.7139" clip-path="url(#clipPath2)" font-family="sans-serif" stroke="none">id von Abkürzung</text>
    </g>
    <g fill="url(#linearGradient8)" text-rendering="geometricPrecision" shape-rendering="geometricPrecision" transform="matrix(1,0,0,1,201,-135)" stroke="url(#linearGradient8)">
      <path d="M-120 780 L-54 810 L-120 840 L-186 810 Z" stroke="none" clip-path="url(#clipPath2)"/>
    </g>
    <g text-rendering="geometricPrecision" stroke-miterlimit="1.45" shape-rendering="geometricPrecision" transform="matrix(1,0,0,1,201,-135)" stroke-linecap="butt">
      <path fill="none" d="M-120 780 L-54 810 L-120 840 L-186 810 Z" clip-path="url(#clipPath2)"/>
      <text x="-155.6865" xml:space="preserve" y="814.7139" clip-path="url(#clipPath2)" font-family="sans-serif" stroke="none">Referenzfach</text>
    </g>
    <g fill="url(#linearGradient9)" text-rendering="geometricPrecision" shape-rendering="geometricPrecision" transform="matrix(1,0,0,1,201,-135)" stroke="url(#linearGradient9)">
      <path d="M50 790 L130 790 L130 830 L50 830 Z" stroke="none" clip-path="url(#clipPath2)"/>
    </g>
    <g text-rendering="geometricPrecision" stroke-miterlimit="1.45" shape-rendering="geometricPrecision" transform="matrix(1,0,0,1,201,-135)" stroke-linecap="butt">
      <path fill="none" d="M50 790 L130 790 L130 830 L50 830 Z" clip-path="url(#clipPath2)"/>
      <text x="59.8184" xml:space="preserve" y="814.7139" clip-path="url(#clipPath2)" font-family="sans-serif" stroke="none">main = true</text>
    </g>
    <g fill="url(#linearGradient10)" text-rendering="geometricPrecision" shape-rendering="geometricPrecision" transform="matrix(1,0,0,1,201,-135)" stroke="url(#linearGradient10)">
      <rect x="202" width="196" height="40" y="790" clip-path="url(#clipPath2)" stroke="none"/>
    </g>
    <g text-rendering="geometricPrecision" stroke-miterlimit="1.45" shape-rendering="geometricPrecision" transform="matrix(1,0,0,1,201,-135)" stroke-linecap="butt">
      <rect fill="none" x="202" width="196" height="40" y="790" clip-path="url(#clipPath2)"/>
      <path fill="none" d="M212 790 L212 830 M202 800 L398 800 M212 790 Z" clip-path="url(#clipPath2)"/>
      <text x="229.957" xml:space="preserve" y="814.7139" clip-path="url(#clipPath2)" font-family="sans-serif" stroke="none">Exam_has_SchoolSubject</text>
    </g>
    <g fill="url(#linearGradient11)" text-rendering="geometricPrecision" shape-rendering="geometricPrecision" transform="matrix(1,0,0,1,201,-135)" stroke="url(#linearGradient11)">
      <path d="M49.2 910 L261 910 L250.8 950 L39 950 Z" stroke="none" clip-path="url(#clipPath2)"/>
    </g>
    <g text-rendering="geometricPrecision" stroke-miterlimit="1.45" shape-rendering="geometricPrecision" transform="matrix(1,0,0,1,201,-135)" stroke-linecap="butt">
      <path fill="none" d="M49.2 910 L261 910 L250.8 950 L39 950 Z" clip-path="url(#clipPath2)"/>
      <text x="74.9561" xml:space="preserve" y="934.7139" clip-path="url(#clipPath2)" font-family="sans-serif" stroke="none">rf_id, bf_id, ex_id, bool:main</text>
    </g>
    <g fill="url(#linearGradient12)" text-rendering="geometricPrecision" shape-rendering="geometricPrecision" transform="matrix(1,0,0,1,201,-135)" stroke="url(#linearGradient12)">
      <path d="M-180 910 L-60 910 L-60 950 L-180 950 Z" stroke="none" clip-path="url(#clipPath2)"/>
    </g>
    <g text-rendering="geometricPrecision" stroke-miterlimit="1.45" shape-rendering="geometricPrecision" transform="matrix(1,0,0,1,201,-135)" stroke-linecap="butt">
      <path fill="none" d="M-180 910 L-60 910 L-60 950 L-180 950 Z" clip-path="url(#clipPath2)"/>
      <text x="-165.3604" xml:space="preserve" y="934.7139" clip-path="url(#clipPath2)" font-family="sans-serif" stroke="none">Fächer zuordnen</text>
    </g>
    <g fill="url(#linearGradient13)" text-rendering="geometricPrecision" shape-rendering="geometricPrecision" transform="matrix(1,0,0,1,201,-135)" stroke="url(#linearGradient13)">
      <rect x="-160" y="1030" clip-path="url(#clipPath2)" width="80" rx="20" ry="20" height="40" stroke="none"/>
    </g>
    <g text-rendering="geometricPrecision" stroke-miterlimit="1.45" shape-rendering="geometricPrecision" transform="matrix(1,0,0,1,201,-135)" stroke-linecap="butt">
      <rect x="-160" y="1030" clip-path="url(#clipPath2)" fill="none" width="80" rx="20" ry="20" height="40"/>
      <text x="-134.0127" xml:space="preserve" y="1054.7139" clip-path="url(#clipPath2)" font-family="sans-serif" stroke="none">Ende</text>
    </g>
    <g text-rendering="geometricPrecision" stroke-miterlimit="1.45" shape-rendering="geometricPrecision" transform="matrix(1,0,0,1,201,-135)" stroke-linecap="butt">
      <path fill="none" d="M-120 470.0044 L-120 527.9708" clip-path="url(#clipPath2)"/>
    </g>
    <g text-rendering="geometricPrecision" stroke-miterlimit="1.45" shape-rendering="geometricPrecision" transform="matrix(1,0,0,1,201,-135)" stroke-linecap="butt">
      <path d="M-120 535.9708 L-115 523.9708 L-120 526.9708 L-125 523.9708 Z" stroke="none" clip-path="url(#clipPath2)"/>
      <path fill="none" stroke-dasharray="6,2" d="M-59.989 556 L27.109 556" clip-path="url(#clipPath2)"/>
      <path stroke-dasharray="6,2" d="M35.109 556 L23.109 551 L26.109 556 L23.109 561 Z" clip-path="url(#clipPath2)" stroke="none"/>
      <path fill="none" stroke-dasharray="6,2" d="M144.884 556 L251.9713 556" clip-path="url(#clipPath2)"/>
      <path stroke-dasharray="6,2" d="M259.9713 556 L247.9713 551 L250.9713 556 L247.9713 561 Z" clip-path="url(#clipPath2)" stroke="none"/>
      <path fill="none" d="M-120 575.9888 L-120 661.9868" clip-path="url(#clipPath2)"/>
      <path d="M-120 669.9868 L-115 657.9868 L-120 660.9868 L-125 657.9868 Z" clip-path="url(#clipPath2)" stroke="none"/>
      <path fill="none" stroke-dasharray="6,2" d="M235.018 690 L152.8756 690" clip-path="url(#clipPath2)"/>
      <path stroke-dasharray="6,2" d="M144.8756 690 L156.8756 695 L153.8756 690 L156.8756 685 Z" clip-path="url(#clipPath2)" stroke="none"/>
      <path fill="none" stroke-dasharray="6,2" d="M35.1123 690 L-51.9743 690" clip-path="url(#clipPath2)"/>
      <path stroke-dasharray="6,2" d="M-59.9743 690 L-47.9743 695 L-50.9743 690 L-47.9743 685 Z" clip-path="url(#clipPath2)" stroke="none"/>
      <path fill="none" d="M-120 710.0098 L-120 771.9736" clip-path="url(#clipPath2)"/>
      <path d="M-120 779.9736 L-115 767.9736 L-120 770.9736 L-125 767.9736 Z" clip-path="url(#clipPath2)" stroke="none"/>
      <path fill="none" d="M-53.9905 810 L42.03 810" clip-path="url(#clipPath2)"/>
      <path d="M50.03 810 L38.03 805 L41.03 810 L38.03 815 Z" clip-path="url(#clipPath2)" stroke="none"/>
      <text x="-47" xml:space="preserve" y="784.7139" clip-path="url(#clipPath2)" font-family="sans-serif" stroke="none">Ja</text>
      <path fill="none" stroke-dasharray="6,2" d="M255.8716 930 L300 930 L300 838.0098" clip-path="url(#clipPath2)"/>
      <path stroke-dasharray="6,2" d="M300 830.0098 L295 842.0098 L300 839.0098 L305 842.0098 Z" clip-path="url(#clipPath2)" stroke="none"/>
      <path fill="none" d="M-120 839.9707 L-120 901.9984" clip-path="url(#clipPath2)"/>
      <path d="M-120 909.9984 L-115 897.9984 L-120 900.9984 L-125 897.9984 Z" clip-path="url(#clipPath2)" stroke="none"/>
      <path fill="none" d="M90 830.0269 L90 875 L-120 875 L-120 902.0142" clip-path="url(#clipPath2)"/>
      <path d="M-120 910.0142 L-115 898.0142 L-120 901.0142 L-125 898.0142 Z" clip-path="url(#clipPath2)" stroke="none"/>
      <path fill="none" stroke-dasharray="6,2" d="M-59.9817 930 L36.112 930" clip-path="url(#clipPath2)"/>
      <path stroke-dasharray="6,2" d="M44.112 930 L32.112 925 L35.112 930 L32.112 935 Z" clip-path="url(#clipPath2)" stroke="none"/>
      <path fill="none" d="M-120 950.0098 L-120 1022.0312" clip-path="url(#clipPath2)"/>
      <path d="M-120 1030.0312 L-115 1018.0312 L-120 1021.0312 L-125 1018.0312 Z" clip-path="url(#clipPath2)" stroke="none"/>
    </g>
    <g fill="rgb(236,245,255)" text-rendering="geometricPrecision" shape-rendering="geometricPrecision" transform="matrix(1,0,0,1,201,-135)" stroke="rgb(236,245,255)">
      <path d="M348 150 L348 180 L612 180 L612 150 Z" stroke="none" clip-path="url(#clipPath2)"/>
      <rect x="348" width="264" height="184" y="180" clip-path="url(#clipPath2)" stroke="none"/>
      <rect x="372" y="180" clip-path="url(#clipPath2)" fill="rgb(113,146,178)" width="240" height="24" stroke="none"/>
      <rect x="348" y="204" clip-path="url(#clipPath2)" fill="rgb(196,215,237)" width="24" height="80" stroke="none"/>
      <rect x="372" y="204" clip-path="url(#clipPath2)" fill="rgb(196,215,237)" width="240" height="80" stroke="none"/>
      <rect x="348" y="284" clip-path="url(#clipPath2)" fill="rgb(171,200,226)" width="24" height="80" stroke="none"/>
      <rect x="372" y="284" clip-path="url(#clipPath2)" fill="rgb(171,200,226)" width="240" height="80" stroke="none"/>
    </g>
    <g text-rendering="geometricPrecision" stroke-miterlimit="1.45" shape-rendering="geometricPrecision" transform="matrix(1,0,0,1,201,-135)" stroke-linecap="butt">
      <rect fill="none" x="348" width="264" height="214" y="150" clip-path="url(#clipPath2)"/>
      <rect fill="none" x="372" width="240" height="184" y="180" clip-path="url(#clipPath2)"/>
      <rect fill="none" x="348" width="264" height="80" y="204" clip-path="url(#clipPath2)"/>
      <rect fill="none" x="348" width="264" height="80" y="284" clip-path="url(#clipPath2)"/>
    </g>
    <g font-size="15px" stroke-linecap="butt" transform="matrix(1,0,0,1,201,-135)" text-rendering="geometricPrecision" font-family="sans-serif" shape-rendering="geometricPrecision" stroke-miterlimit="1.45">
      <text x="443.7231" xml:space="preserve" y="171.0806" clip-path="url(#clipPath2)" stroke="none">Ergänzung</text>
    </g>
    <g text-rendering="geometricPrecision" stroke-miterlimit="1.45" shape-rendering="geometricPrecision" font-family="sans-serif" transform="matrix(-0,-1,1,-0,552,128.0068)" stroke-linecap="butt">
      <text x="2" xml:space="preserve" y="14.0645" clip-path="url(#clipPath5)" stroke="none">Row 0</text>
    </g>
    <g text-rendering="geometricPrecision" stroke-miterlimit="1.45" shape-rendering="geometricPrecision" font-family="sans-serif" transform="matrix(-0,-1,1,-0,552,208.0068)" stroke-linecap="butt">
      <text x="2" xml:space="preserve" y="14.0645" clip-path="url(#clipPath6)" stroke="none">Row 1</text>
    </g>
    <g text-rendering="geometricPrecision" stroke-miterlimit="1.45" shape-rendering="geometricPrecision" font-family="sans-serif" transform="matrix(1,0,0,1,201,-135)" stroke-linecap="butt">
      <text x="473.3262" xml:space="preserve" y="197.0645" clip-path="url(#clipPath2)" stroke="none">Thema</text>
    </g>
    <g fill="url(#linearGradient14)" text-rendering="geometricPrecision" shape-rendering="geometricPrecision" transform="matrix(1,0,0,1,201,-135)" stroke="url(#linearGradient14)">
      <rect x="260" width="80" height="40" y="430" clip-path="url(#clipPath2)" stroke="none"/>
    </g>
    <g text-rendering="geometricPrecision" stroke-miterlimit="1.45" stroke-dasharray="6,2" shape-rendering="geometricPrecision" transform="matrix(1,0,0,1,201,-135)" stroke-linecap="butt">
      <rect fill="none" x="260" width="80" height="40" y="430" clip-path="url(#clipPath2)"/>
      <path fill="none" d="M270 430 L270 470 M260 440 L340 440 M270 430 Z" clip-path="url(#clipPath2)"/>
      <text x="285.3281" y="454.7139" clip-path="url(#clipPath2)" font-family="sans-serif" stroke-dasharray="none" stroke="none" xml:space="preserve">Topic</text>
    </g>
    <g text-rendering="geometricPrecision" stroke-miterlimit="1.45" stroke-dasharray="6,2" shape-rendering="geometricPrecision" transform="matrix(1,0,0,1,201,-135)" stroke-linecap="butt">
      <path fill="none" d="M300 470.0044 L300 527.9708" clip-path="url(#clipPath2)"/>
      <path d="M300 535.9708 L305 523.9708 L300 526.9708 L295 523.9708 Z" clip-path="url(#clipPath2)" stroke="none"/>
    </g>
  </g>
</svg>
