<?xml version="1.0" encoding="UTF-8"?>
<!DOCTYPE svg
PUBLIC "-//W3C//DTD SVG 1.1//EN"
       "http://www.w3.org/Graphics/SVG/1.1/DTD/svg11.dtd">
<svg viewBox="90 2 1387 755" width="1297px" height="753px" xmlns="http://www.w3.org/2000/svg" version="1.1">
   <line x1="978" y1="615" x2="968" y2="615" style="stroke:#0bf;stroke-width:1;"/>
   <line x1="806" y1="604" x2="796" y2="604" style="stroke:#0bf;stroke-width:1;"/>
   <line x1="968" y1="615" x2="806" y2="604" style="stroke:#0bf;stroke-width:1;"/>
   <line x1="970,5" y1="615" x2="974,03553390593" y2="618,53553390593" style="stroke:#0bf;stroke-width:2;"/>
   <line x1="970,5" y1="615" x2="974,03553390593" y2="611,46446609407" style="stroke:#0bf;stroke-width:2;"/>
   <line x1="801" y1="604" x2="804,53553390593" y2="607,53553390593" style="stroke:#0bf;stroke-width:2;"/>
   <line x1="801" y1="604" x2="804,53553390593" y2="600,46446609407" style="stroke:#0bf;stroke-width:2;"/>
   <line x1="1190" y1="322" x2="1180" y2="322" style="stroke:#cb0;stroke-width:1;"/>
   <line x1="1180" y1="481" x2="1190" y2="481" style="stroke:#cb0;stroke-width:1;"/>
   <line x1="1180" y1="322" x2="1180" y2="481" style="stroke:#cb0;stroke-width:1;"/>
   <line x1="1182,5" y1="322" x2="1186,0355339059" y2="325,53553390593" style="stroke:#cb0;stroke-width:2;"/>
   <line x1="1182,5" y1="322" x2="1186,0355339059" y2="318,46446609407" style="stroke:#cb0;stroke-width:2;"/>
   <line x1="1185" y1="481" x2="1181,4644660941" y2="484,53553390593" style="stroke:#cb0;stroke-width:2;"/>
   <line x1="1185" y1="481" x2="1181,4644660941" y2="477,46446609407" style="stroke:#cb0;stroke-width:2;"/>
   <line x1="1190" y1="302" x2="1180" y2="302" style="stroke:#c00;stroke-width:1;"/>
   <line x1="1088" y1="595" x2="1078" y2="595" style="stroke:#c00;stroke-width:1;"/>
   <line x1="1180" y1="302" x2="1088" y2="595" style="stroke:#c00;stroke-width:1;"/>
   <line x1="1182,5" y1="302" x2="1186,0355339059" y2="305,53553390593" style="stroke:#c00;stroke-width:2;"/>
   <line x1="1182,5" y1="302" x2="1186,0355339059" y2="298,46446609407" style="stroke:#c00;stroke-width:2;"/>
   <line x1="1083" y1="595" x2="1086,5355339059" y2="598,53553390593" style="stroke:#c00;stroke-width:2;"/>
   <line x1="1083" y1="595" x2="1086,5355339059" y2="591,46446609407" style="stroke:#c00;stroke-width:2;"/>
   <line x1="1190" y1="342" x2="1180" y2="342" style="stroke:#333;stroke-width:1;"/>
   <line x1="1072" y1="257" x2="1062" y2="257" style="stroke:#333;stroke-width:1;"/>
   <line x1="1180" y1="342" x2="1072" y2="257" style="stroke:#333;stroke-width:1;"/>
   <line x1="1182,5" y1="342" x2="1186,0355339059" y2="345,53553390593" style="stroke:#333;stroke-width:2;"/>
   <line x1="1182,5" y1="342" x2="1186,0355339059" y2="338,46446609407" style="stroke:#333;stroke-width:2;"/>
   <line x1="1067" y1="257" x2="1070,5355339059" y2="260,53553390593" style="stroke:#333;stroke-width:2;"/>
   <line x1="1067" y1="257" x2="1070,5355339059" y2="253,46446609407" style="stroke:#333;stroke-width:2;"/>
   <line x1="1190" y1="541" x2="1180" y2="541" style="stroke:#cb0;stroke-width:1;"/>
   <line x1="1180" y1="650" x2="1190" y2="650" style="stroke:#cb0;stroke-width:1;"/>
   <line x1="1180" y1="541" x2="1180" y2="650" style="stroke:#cb0;stroke-width:1;"/>
   <line x1="1182,5" y1="541" x2="1186,0355339059" y2="544,53553390593" style="stroke:#cb0;stroke-width:2;"/>
   <line x1="1182,5" y1="541" x2="1186,0355339059" y2="537,46446609407" style="stroke:#cb0;stroke-width:2;"/>
   <line x1="1185" y1="650" x2="1181,4644660941" y2="653,53553390593" style="stroke:#cb0;stroke-width:2;"/>
   <line x1="1185" y1="650" x2="1181,4644660941" y2="646,46446609407" style="stroke:#cb0;stroke-width:2;"/>
   <line x1="520" y1="396" x2="530" y2="396" style="stroke:#bbb;stroke-width:1;"/>
   <line x1="655" y1="92" x2="665" y2="92" style="stroke:#bbb;stroke-width:1;"/>
   <line x1="530" y1="396" x2="655" y2="92" style="stroke:#bbb;stroke-width:1;"/>
   <line x1="527,5" y1="396" x2="523,96446609407" y2="399,53553390593" style="stroke:#bbb;stroke-width:2;"/>
   <line x1="527,5" y1="396" x2="523,96446609407" y2="392,46446609407" style="stroke:#bbb;stroke-width:2;"/>
   <line x1="660" y1="92" x2="656,46446609407" y2="95,535533905933" style="stroke:#bbb;stroke-width:2;"/>
   <line x1="660" y1="92" x2="656,46446609407" y2="88,464466094067" style="stroke:#bbb;stroke-width:2;"/>
   <line x1="670" y1="326" x2="660" y2="326" style="stroke:#bbb;stroke-width:1;"/>
   <line x1="530" y1="296" x2="520" y2="296" style="stroke:#bbb;stroke-width:1;"/>
   <line x1="660" y1="326" x2="530" y2="296" style="stroke:#bbb;stroke-width:1;"/>
   <line x1="662,5" y1="326" x2="666,03553390593" y2="329,53553390593" style="stroke:#bbb;stroke-width:2;"/>
   <line x1="662,5" y1="326" x2="666,03553390593" y2="322,46446609407" style="stroke:#bbb;stroke-width:2;"/>
   <line x1="525" y1="296" x2="528,53553390593" y2="299,53553390593" style="stroke:#bbb;stroke-width:2;"/>
   <line x1="525" y1="296" x2="528,53553390593" y2="292,46446609407" style="stroke:#bbb;stroke-width:2;"/>
   <line x1="823" y1="346" x2="833" y2="346" style="stroke:#333;stroke-width:1;"/>
   <line x1="971" y1="257" x2="981" y2="257" style="stroke:#333;stroke-width:1;"/>
   <line x1="833" y1="346" x2="971" y2="257" style="stroke:#333;stroke-width:1;"/>
   <line x1="830,5" y1="346" x2="826,96446609407" y2="349,53553390593" style="stroke:#333;stroke-width:2;"/>
   <line x1="830,5" y1="346" x2="826,96446609407" y2="342,46446609407" style="stroke:#333;stroke-width:2;"/>
   <line x1="976" y1="257" x2="972,46446609407" y2="260,53553390593" style="stroke:#333;stroke-width:2;"/>
   <line x1="976" y1="257" x2="972,46446609407" y2="253,46446609407" style="stroke:#333;stroke-width:2;"/>
   <line x1="110" y1="128" x2="100" y2="128" style="stroke:#c00;stroke-width:1;"/>
   <line x1="95" y1="293" x2="105" y2="293" style="stroke:#c00;stroke-width:1;"/>
   <line x1="100" y1="128" x2="95" y2="293" style="stroke:#c00;stroke-width:1;"/>
   <line x1="102,5" y1="128" x2="106,03553390593" y2="131,53553390593" style="stroke:#c00;stroke-width:2;"/>
   <line x1="102,5" y1="128" x2="106,03553390593" y2="124,46446609407" style="stroke:#c00;stroke-width:2;"/>
   <line x1="100" y1="293" x2="96,464466094067" y2="296,53553390593" style="stroke:#c00;stroke-width:2;"/>
   <line x1="100" y1="293" x2="96,464466094067" y2="289,46446609407" style="stroke:#c00;stroke-width:2;"/>
   <line x1="324" y1="108" x2="334" y2="108" style="stroke:#0bf;stroke-width:1;"/>
   <line x1="655" y1="92" x2="665" y2="92" style="stroke:#0bf;stroke-width:1;"/>
   <line x1="334" y1="108" x2="655" y2="92" style="stroke:#0bf;stroke-width:1;"/>
   <line x1="331,5" y1="108" x2="327,96446609407" y2="111,53553390593" style="stroke:#0bf;stroke-width:2;"/>
   <line x1="331,5" y1="108" x2="327,96446609407" y2="104,46446609407" style="stroke:#0bf;stroke-width:2;"/>
   <line x1="660" y1="92" x2="656,46446609407" y2="95,535533905933" style="stroke:#0bf;stroke-width:2;"/>
   <line x1="660" y1="92" x2="656,46446609407" y2="88,464466094067" style="stroke:#0bf;stroke-width:2;"/>
   <line x1="993" y1="87" x2="983" y2="87" style="stroke:#0bf;stroke-width:1;"/>
   <line x1="763" y1="92" x2="753" y2="92" style="stroke:#0bf;stroke-width:1;"/>
   <line x1="983" y1="87" x2="763" y2="92" style="stroke:#0bf;stroke-width:1;"/>
   <line x1="985,5" y1="87" x2="989,03553390593" y2="90,535533905933" style="stroke:#0bf;stroke-width:2;"/>
   <line x1="985,5" y1="87" x2="989,03553390593" y2="83,464466094067" style="stroke:#0bf;stroke-width:2;"/>
   <line x1="758" y1="92" x2="761,53553390593" y2="95,535533905933" style="stroke:#0bf;stroke-width:2;"/>
   <line x1="758" y1="92" x2="761,53553390593" y2="88,464466094067" style="stroke:#0bf;stroke-width:2;"/>
   <line x1="993" y1="67" x2="983" y2="67" style="stroke:#b0b;stroke-width:1;"/>
   <line x1="971" y1="257" x2="981" y2="257" style="stroke:#b0b;stroke-width:1;"/>
   <line x1="983" y1="67" x2="971" y2="257" style="stroke:#b0b;stroke-width:1;"/>
   <line x1="985,5" y1="67" x2="989,03553390593" y2="70,535533905933" style="stroke:#b0b;stroke-width:2;"/>
   <line x1="985,5" y1="67" x2="989,03553390593" y2="63,464466094067" style="stroke:#b0b;stroke-width:2;"/>
   <line x1="976" y1="257" x2="972,46446609407" y2="260,53553390593" style="stroke:#b0b;stroke-width:2;"/>
   <line x1="976" y1="257" x2="972,46446609407" y2="253,46446609407" style="stroke:#b0b;stroke-width:2;"/>
   <rect width="100" height="20" x="978" y="565" style="fill:#007;stroke:black;"/>
   <text width="100" height="20" x="983" y="579" style="fill:#fff;" font-family="Arial" font-size="16px"> exam</text>
   <rect width="100" height="20" x="978" y="585" style="fill:#aea;stroke:black;"/>
   <text width="100" height="20" x="983" y="599" style="fill:black;" font-family="Arial" font-size="16px">id</text>
   <rect width="100" height="20" x="978" y="605" style="fill:none;stroke:black;"/>
   <text width="100" height="20" x="983" y="619" style="fill:black;" font-family="Arial" font-size="16px">topic_id</text>
   <rect width="100" height="20" x="978" y="625" style="fill:none;stroke:black;"/>
   <text width="100" height="20" x="983" y="639" style="fill:black;" font-family="Arial" font-size="16px">key_question</text>
   <rect width="100" height="20" x="978" y="645" style="fill:none;stroke:black;"/>
   <text width="100" height="20" x="983" y="659" style="fill:black;" font-family="Arial" font-size="16px">year</text>
   <rect width="100" height="20" x="978" y="665" style="fill:none;stroke:black;"/>
   <text width="100" height="20" x="983" y="679" style="fill:black;" font-family="Arial" font-size="16px">created</text>
   <rect width="100" height="20" x="978" y="685" style="fill:none;stroke:black;"/>
   <text width="100" height="20" x="983" y="699" style="fill:black;" font-family="Arial" font-size="16px">updated</text>
   <rect width="182" height="20" x="1190" y="252" style="fill:#007;stroke:black;"/>
   <text width="182" height="20" x="1195" y="266" style="fill:#fff;" font-family="Arial" font-size="16px"> exam_has_school_subject</text>
   <rect width="182" height="20" x="1190" y="272" style="fill:#aea;stroke:black;"/>
   <text width="182" height="20" x="1195" y="286" style="fill:black;" font-family="Arial" font-size="16px">id</text>
   <rect width="182" height="20" x="1190" y="292" style="fill:none;stroke:black;"/>
   <text width="182" height="20" x="1195" y="306" style="fill:black;" font-family="Arial" font-size="16px">exam_id</text>
   <rect width="182" height="20" x="1190" y="312" style="fill:none;stroke:black;"/>
   <text width="182" height="20" x="1195" y="326" style="fill:black;" font-family="Arial" font-size="16px">school_subject_id</text>
   <rect width="182" height="20" x="1190" y="332" style="fill:none;stroke:black;"/>
   <text width="182" height="20" x="1195" y="346" style="fill:black;" font-family="Arial" font-size="16px">user_id</text>
   <rect width="182" height="20" x="1190" y="352" style="fill:none;stroke:black;"/>
   <text width="182" height="20" x="1195" y="366" style="fill:black;" font-family="Arial" font-size="16px">is_main_school_subject</text>
   <rect width="182" height="20" x="1190" y="372" style="fill:none;stroke:black;"/>
   <text width="182" height="20" x="1195" y="386" style="fill:black;" font-family="Arial" font-size="16px">created</text>
   <rect width="182" height="20" x="1190" y="392" style="fill:none;stroke:black;"/>
   <text width="182" height="20" x="1195" y="406" style="fill:black;" font-family="Arial" font-size="16px">updated</text>
   <rect width="116" height="20" x="105" y="263" style="fill:#007;stroke:black;"/>
   <text width="116" height="20" x="110" y="277" style="fill:#fff;" font-family="Arial" font-size="16px"> role_permission</text>
   <rect width="116" height="20" x="105" y="283" style="fill:#aea;stroke:black;"/>
   <text width="116" height="20" x="110" y="297" style="fill:black;" font-family="Arial" font-size="16px">id</text>
   <rect width="116" height="20" x="105" y="303" style="fill:none;stroke:black;"/>
   <text width="116" height="20" x="110" y="317" style="fill:black;" font-family="Arial" font-size="16px">label</text>
   <rect width="116" height="20" x="105" y="323" style="fill:none;stroke:black;"/>
   <text width="116" height="20" x="110" y="337" style="fill:black;" font-family="Arial" font-size="16px">description</text>
   <rect width="116" height="20" x="105" y="343" style="fill:none;stroke:black;"/>
   <text width="116" height="20" x="110" y="357" style="fill:black;" font-family="Arial" font-size="16px">created</text>
   <rect width="116" height="20" x="105" y="363" style="fill:none;stroke:black;"/>
   <text width="116" height="20" x="110" y="377" style="fill:black;" font-family="Arial" font-size="16px">updated</text>
   <rect width="165" height="20" x="1190" y="451" style="fill:#007;stroke:black;"/>
   <text width="165" height="20" x="1195" y="465" style="fill:#fff;" font-family="Arial" font-size="16px"> school_subject</text>
   <rect width="165" height="20" x="1190" y="471" style="fill:#aea;stroke:black;"/>
   <text width="165" height="20" x="1195" y="485" style="fill:black;" font-family="Arial" font-size="16px">id</text>
   <rect width="165" height="20" x="1190" y="491" style="fill:none;stroke:black;"/>
   <text width="165" height="20" x="1195" y="505" style="fill:black;" font-family="Arial" font-size="16px">label</text>
   <rect width="165" height="20" x="1190" y="511" style="fill:none;stroke:black;"/>
   <text width="165" height="20" x="1195" y="525" style="fill:black;" font-family="Arial" font-size="16px">abbr</text>
   <rect width="165" height="20" x="1190" y="531" style="fill:none;stroke:black;"/>
   <text width="165" height="20" x="1195" y="545" style="fill:black;" font-family="Arial" font-size="16px">school_subject_type_id</text>
   <rect width="165" height="20" x="1190" y="551" style="fill:none;stroke:black;"/>
   <text width="165" height="20" x="1195" y="565" style="fill:black;" font-family="Arial" font-size="16px">created</text>
   <rect width="165" height="20" x="1190" y="571" style="fill:none;stroke:black;"/>
   <text width="165" height="20" x="1195" y="585" style="fill:black;" font-family="Arial" font-size="16px">updated</text>
   <rect width="144" height="20" x="1190" y="620" style="fill:#007;stroke:black;"/>
   <text width="144" height="20" x="1195" y="634" style="fill:#fff;" font-family="Arial" font-size="16px"> school_subject_type</text>
   <rect width="144" height="20" x="1190" y="640" style="fill:#aea;stroke:black;"/>
   <text width="144" height="20" x="1195" y="654" style="fill:black;" font-family="Arial" font-size="16px">id</text>
   <rect width="144" height="20" x="1190" y="660" style="fill:none;stroke:black;"/>
   <text width="144" height="20" x="1195" y="674" style="fill:black;" font-family="Arial" font-size="16px">label</text>
   <rect width="144" height="20" x="1190" y="680" style="fill:none;stroke:black;"/>
   <text width="144" height="20" x="1195" y="694" style="fill:black;" font-family="Arial" font-size="16px">description</text>
   <rect width="144" height="20" x="1190" y="700" style="fill:none;stroke:black;"/>
   <text width="144" height="20" x="1195" y="714" style="fill:black;" font-family="Arial" font-size="16px">created</text>
   <rect width="144" height="20" x="1190" y="720" style="fill:none;stroke:black;"/>
   <text width="144" height="20" x="1195" y="734" style="fill:black;" font-family="Arial" font-size="16px">updated</text>
   <rect width="88" height="20" x="708" y="574" style="fill:#007;stroke:black;"/>
   <text width="88" height="20" x="713" y="588" style="fill:#fff;" font-family="Arial" font-size="16px"> topic</text>
   <rect width="88" height="20" x="708" y="594" style="fill:#aea;stroke:black;"/>
   <text width="88" height="20" x="713" y="608" style="fill:black;" font-family="Arial" font-size="16px">id</text>
   <rect width="88" height="20" x="708" y="614" style="fill:none;stroke:black;"/>
   <text width="88" height="20" x="713" y="628" style="fill:black;" font-family="Arial" font-size="16px">title</text>
   <rect width="88" height="20" x="708" y="634" style="fill:none;stroke:black;"/>
   <text width="88" height="20" x="713" y="648" style="fill:black;" font-family="Arial" font-size="16px">description</text>
   <rect width="88" height="20" x="708" y="654" style="fill:none;stroke:black;"/>
   <text width="88" height="20" x="713" y="668" style="fill:black;" font-family="Arial" font-size="16px">created</text>
   <rect width="88" height="20" x="708" y="674" style="fill:none;stroke:black;"/>
   <text width="88" height="20" x="713" y="688" style="fill:black;" font-family="Arial" font-size="16px">updated</text>
   <rect width="81" height="20" x="981" y="227" style="fill:#007;stroke:black;"/>
   <text width="81" height="20" x="986" y="241" style="fill:#fff;" font-family="Arial" font-size="16px"> user</text>
   <rect width="81" height="20" x="981" y="247" style="fill:#aea;stroke:black;"/>
   <text width="81" height="20" x="986" y="261" style="fill:black;" font-family="Arial" font-size="16px">id</text>
   <rect width="81" height="20" x="981" y="267" style="fill:none;stroke:black;"/>
   <text width="81" height="20" x="986" y="281" style="fill:black;" font-family="Arial" font-size="16px">first_name</text>
   <rect width="81" height="20" x="981" y="287" style="fill:none;stroke:black;"/>
   <text width="81" height="20" x="986" y="301" style="fill:black;" font-family="Arial" font-size="16px">last_name</text>
   <rect width="81" height="20" x="981" y="307" style="fill:none;stroke:black;"/>
   <text width="81" height="20" x="986" y="321" style="fill:black;" font-family="Arial" font-size="16px">username</text>
   <rect width="81" height="20" x="981" y="327" style="fill:none;stroke:black;"/>
   <text width="81" height="20" x="986" y="341" style="fill:black;" font-family="Arial" font-size="16px">password</text>
   <rect width="81" height="20" x="981" y="347" style="fill:none;stroke:black;"/>
   <text width="81" height="20" x="986" y="361" style="fill:black;" font-family="Arial" font-size="16px">email</text>
   <rect width="81" height="20" x="981" y="367" style="fill:none;stroke:black;"/>
   <text width="81" height="20" x="986" y="381" style="fill:black;" font-family="Arial" font-size="16px">is_active</text>
   <rect width="81" height="20" x="981" y="387" style="fill:none;stroke:black;"/>
   <text width="81" height="20" x="986" y="401" style="fill:black;" font-family="Arial" font-size="16px">created</text>
   <rect width="81" height="20" x="981" y="407" style="fill:none;stroke:black;"/>
   <text width="81" height="20" x="986" y="421" style="fill:black;" font-family="Arial" font-size="16px">updated</text>
   <rect width="88" height="20" x="432" y="266" style="fill:#007;stroke:black;"/>
   <text width="88" height="20" x="437" y="280" style="fill:#fff;" font-family="Arial" font-size="16px"> user_group</text>
   <rect width="88" height="20" x="432" y="286" style="fill:#aea;stroke:black;"/>
   <text width="88" height="20" x="437" y="300" style="fill:black;" font-family="Arial" font-size="16px">id</text>
   <rect width="88" height="20" x="432" y="306" style="fill:none;stroke:black;"/>
   <text width="88" height="20" x="437" y="320" style="fill:black;" font-family="Arial" font-size="16px">label</text>
   <rect width="88" height="20" x="432" y="326" style="fill:none;stroke:black;"/>
   <text width="88" height="20" x="437" y="340" style="fill:black;" font-family="Arial" font-size="16px">description</text>
   <rect width="88" height="20" x="432" y="346" style="fill:none;stroke:black;"/>
   <text width="88" height="20" x="437" y="360" style="fill:black;" font-family="Arial" font-size="16px">created</text>
   <rect width="88" height="20" x="432" y="366" style="fill:none;stroke:black;"/>
   <text width="88" height="20" x="437" y="380" style="fill:black;" font-family="Arial" font-size="16px">updated</text>
   <rect width="88" height="20" x="432" y="386" style="fill:none;stroke:black;"/>
   <text width="88" height="20" x="437" y="400" style="fill:black;" font-family="Arial" font-size="16px">role_id</text>
   <rect width="153" height="20" x="670" y="276" style="fill:#007;stroke:black;"/>
   <text width="153" height="20" x="675" y="290" style="fill:#fff;" font-family="Arial" font-size="16px"> user_group_has_user</text>
   <rect width="153" height="20" x="670" y="296" style="fill:#aea;stroke:black;"/>
   <text width="153" height="20" x="675" y="310" style="fill:black;" font-family="Arial" font-size="16px">id</text>
   <rect width="153" height="20" x="670" y="316" style="fill:none;stroke:black;"/>
   <text width="153" height="20" x="675" y="330" style="fill:black;" font-family="Arial" font-size="16px">user_group_id</text>
   <rect width="153" height="20" x="670" y="336" style="fill:none;stroke:black;"/>
   <text width="153" height="20" x="675" y="350" style="fill:black;" font-family="Arial" font-size="16px">user_id</text>
   <rect width="153" height="20" x="670" y="356" style="fill:none;stroke:black;"/>
   <text width="153" height="20" x="675" y="370" style="fill:black;" font-family="Arial" font-size="16px">created</text>
   <rect width="153" height="20" x="670" y="376" style="fill:none;stroke:black;"/>
   <text width="153" height="20" x="675" y="390" style="fill:black;" font-family="Arial" font-size="16px">updated</text>
   <rect width="88" height="20" x="665" y="62" style="fill:#007;stroke:black;"/>
   <text width="88" height="20" x="670" y="76" style="fill:#fff;" font-family="Arial" font-size="16px"> user_role</text>
   <rect width="88" height="20" x="665" y="82" style="fill:#aea;stroke:black;"/>
   <text width="88" height="20" x="670" y="96" style="fill:black;" font-family="Arial" font-size="16px">id</text>
   <rect width="88" height="20" x="665" y="102" style="fill:none;stroke:black;"/>
   <text width="88" height="20" x="670" y="116" style="fill:black;" font-family="Arial" font-size="16px">label</text>
   <rect width="88" height="20" x="665" y="122" style="fill:none;stroke:black;"/>
   <text width="88" height="20" x="670" y="136" style="fill:black;" font-family="Arial" font-size="16px">description</text>
   <rect width="88" height="20" x="665" y="142" style="fill:none;stroke:black;"/>
   <text width="88" height="20" x="670" y="156" style="fill:black;" font-family="Arial" font-size="16px">created</text>
   <rect width="88" height="20" x="665" y="162" style="fill:none;stroke:black;"/>
   <text width="88" height="20" x="670" y="176" style="fill:black;" font-family="Arial" font-size="16px">updated</text>
   <rect width="214" height="20" x="110" y="58" style="fill:#007;stroke:black;"/>
   <text width="214" height="20" x="115" y="72" style="fill:#fff;" font-family="Arial" font-size="16px"> user_role_has_role_permission</text>
   <rect width="214" height="20" x="110" y="78" style="fill:#aea;stroke:black;"/>
   <text width="214" height="20" x="115" y="92" style="fill:black;" font-family="Arial" font-size="16px">id</text>
   <rect width="214" height="20" x="110" y="98" style="fill:none;stroke:black;"/>
   <text width="214" height="20" x="115" y="112" style="fill:black;" font-family="Arial" font-size="16px">user_role_id</text>
   <rect width="214" height="20" x="110" y="118" style="fill:none;stroke:black;"/>
   <text width="214" height="20" x="115" y="132" style="fill:black;" font-family="Arial" font-size="16px">role_permission_id</text>
   <rect width="214" height="20" x="110" y="138" style="fill:none;stroke:black;"/>
   <text width="214" height="20" x="115" y="152" style="fill:black;" font-family="Arial" font-size="16px">created</text>
   <rect width="214" height="20" x="110" y="158" style="fill:none;stroke:black;"/>
   <text width="214" height="20" x="115" y="172" style="fill:black;" font-family="Arial" font-size="16px">updated</text>
   <rect width="139" height="20" x="993" y="17" style="fill:#007;stroke:black;"/>
   <text width="139" height="20" x="998" y="31" style="fill:#fff;" font-family="Arial" font-size="16px"> user_role_has_user</text>
   <rect width="139" height="20" x="993" y="37" style="fill:#aea;stroke:black;"/>
   <text width="139" height="20" x="998" y="51" style="fill:black;" font-family="Arial" font-size="16px">id</text>
   <rect width="139" height="20" x="993" y="57" style="fill:none;stroke:black;"/>
   <text width="139" height="20" x="998" y="71" style="fill:black;" font-family="Arial" font-size="16px">user_id</text>
   <rect width="139" height="20" x="993" y="77" style="fill:none;stroke:black;"/>
   <text width="139" height="20" x="998" y="91" style="fill:black;" font-family="Arial" font-size="16px">user_role_id</text>
   <rect width="139" height="20" x="993" y="97" style="fill:none;stroke:black;"/>
   <text width="139" height="20" x="998" y="111" style="fill:black;" font-family="Arial" font-size="16px">created</text>
   <rect width="139" height="20" x="993" y="117" style="fill:none;stroke:black;"/>
   <text width="139" height="20" x="998" y="131" style="fill:black;" font-family="Arial" font-size="16px">updated</text>
</svg>
